<?xml version="1.0" encoding="utf-8"?>
<!-- Generator: Adobe Illustrator 19.0.0, SVG Export Plug-In . SVG Version: 6.00 Build 0)  -->
<svg version="1.1" id="XMLID_2_" xmlns="http://www.w3.org/2000/svg" xmlns:xlink="http://www.w3.org/1999/xlink" x="0px" y="0px"
	 viewBox="0 0 21 21" enable-background="new 0 0 21 21" xml:space="preserve">
<path id="img_x5F_add" fill="#FFFFFF" d="M0,8.875v3.25C0,12.6082,0.3918,13,0.875,13h6.25C7.6082,13,8,13.3918,8,13.875v6.25
	C8,20.6082,8.3918,21,8.875,21h3.25C12.6082,21,13,20.6082,13,20.125v-6.25C13,13.3918,13.3918,13,13.875,13h6.25
	C20.6082,13,21,12.6082,21,12.125v-3.25C21,8.3918,20.6082,8,20.125,8h-6.25C13.3918,8,13,7.6082,13,7.125v-6.25
	C13,0.3918,12.6082,0,12.125,0h-3.25C8.3918,0,8,0.3918,8,0.875v6.25C8,7.6082,7.6082,8,7.125,8h-6.25C0.3918,8,0,8.3918,0,8.875z"
	/>
</svg>
