<?xml version="1.0" encoding="utf-8"?>
<!-- Generator: Adobe Illustrator 19.0.0, SVG Export Plug-In . SVG Version: 6.00 Build 0)  -->
<svg version="1.1" id="XMLID_2_" xmlns="http://www.w3.org/2000/svg" xmlns:xlink="http://www.w3.org/1999/xlink" x="0px" y="0px"
	 viewBox="0 0 25 31.1702" enable-background="new 0 0 25 31.1702" xml:space="preserve">
<g id="bell">
	<path id="XMLID_149_" fill="#FFFFFF" d="M12.495,2.2068c-0.6484,0-1.1741,0.5064-1.1741,1.1312
		c0,0.6247,0.5257,1.1311,1.1741,1.1311c0.6485,0,1.1741-0.5064,1.1741-1.1311C13.6691,2.7132,13.1435,2.2068,12.495,2.2068
		 M4.813,27.2491c-3.8844,0.0026-3.9551,0.0097-4.0457-0.0144c-0.0907-0.0241-0.2014-0.0794-0.3239-0.1783
		c-0.1226-0.0989-0.257-0.2412-0.3361-0.4309c-0.079-0.1898-0.1028-0.427-0.1067-0.676c-0.004-0.2491,0.0119-0.51,0.0672-0.7036
		c0.0554-0.1937,0.1503-0.3202,0.3835-0.5574c0.2332-0.2372,0.6049-0.5851,0.933-0.9844c0.3282-0.3994,0.6128-0.85,0.8539-1.3402
		c0.2412-0.4902,0.4388-1.02,0.593-1.5774c0.1542-0.5574,0.2649-1.1425,0.3401-1.7593c0.0751-0.6167,0.1146-1.265,0.1462-2.0132
		c0.0317-0.7481,0.0554-1.5962,0.0761-2.3671c0.0208-0.7709,0.0386-1.4647,0.1275-2.1496c0.089-0.6849,0.2491-1.361,0.4804-2.0073
		c0.2312-0.6464,0.5337-1.2631,0.8687-1.7968c0.335-0.5337,0.7027-0.9844,1.0876-1.3802C6.3426,6.917,6.7446,6.5759,7.168,6.2734
		C7.5915,5.971,8.0362,5.7071,8.3624,5.5015C8.6885,5.296,8.8961,5.1486,9.0176,4.9683c0.1215-0.1804,0.1571-0.3938,0.1551-0.6528
		S9.1313,3.7522,9.1392,3.3944C9.147,3.0366,9.2025,2.6255,9.3249,2.2538c0.1226-0.3716,0.3123-0.7037,0.5149-0.977
		c0.2027-0.2733,0.4181-0.4877,0.6771-0.675c0.2589-0.1873,0.5614-0.3475,0.9142-0.4542c0.3529-0.1067,0.7561-0.1601,1.1638-0.1453
		c0.4077,0.0148,0.8199,0.0978,1.1889,0.2506c0.3692,0.1527,0.6953,0.3751,0.9696,0.6107c0.2743,0.2358,0.4967,0.4848,0.6751,0.7873
		c0.1784,0.3025,0.3128,0.6583,0.384,1.0279c0.0712,0.3696,0.079,0.7531,0.0613,1.0377c-0.0178,0.2846-0.0613,0.4704-0.0633,0.6503
		c-0.002,0.1799,0.0376,0.3538,0.1047,0.4942c0.0672,0.1403,0.1621,0.2471,0.3459,0.3755c0.1838,0.1285,0.4566,0.2787,0.8065,0.5001
		c0.3498,0.2214,0.7768,0.5139,1.186,0.8499c0.4091,0.3361,0.8005,0.7156,1.1293,1.0922c0.3288,0.3766,0.5949,0.7503,0.8505,1.1822
		c0.2556,0.432,0.5008,0.9221,0.7004,1.4242s0.3538,1.016,0.4566,1.5378c0.1029,0.5218,0.1542,1.0517,0.1799,1.7553
		c0.0257,0.7037,0.0257,1.5814,0.0427,2.3383c0.017,0.7569,0.051,1.393,0.1199,2.0773c0.0689,0.6843,0.1727,1.4167,0.3061,2.0645
		c0.1334,0.6478,0.2965,1.2112,0.5159,1.7479c0.2195,0.5366,0.4952,1.0466,0.761,1.4484c0.2659,0.4017,0.5218,0.6954,0.7486,0.9281
		c0.2269,0.2327,0.4245,0.4048,0.5698,0.5609c0.1454,0.1561,0.2382,0.2965,0.2946,0.4892c0.0563,0.1927,0.0761,0.4378,0.0701,0.6622
		c-0.0059,0.2244-0.0376,0.4279-0.1028,0.5999c-0.0653,0.1719-0.164,0.3123-0.2688,0.426c-0.1048,0.1136-0.2155,0.2006-0.3054,0.251
		c-0.0899,0.0505-0.1591,0.0642-4.0428,0.0702C16.3955,27.2485,8.6974,27.2466,4.813,27.2491z"/>
	<path id="XMLID_1_" fill="#FFFFFF" d="M12.4998,31.1702c-1.7965,0-3.2819-1.3313-3.5236-3.061h7.0471
		C15.7816,29.839,14.2962,31.1702,12.4998,31.1702"/>
</g>
</svg>
