<?xml version="1.0" encoding="utf-8"?>
<!-- Generator: Adobe Illustrator 19.0.0, SVG Export Plug-In . SVG Version: 6.00 Build 0)  -->
<svg version="1.1" id="XMLID_2_" xmlns="http://www.w3.org/2000/svg" xmlns:xlink="http://www.w3.org/1999/xlink" x="0px" y="0px"
	 viewBox="0 0 17 17" enable-background="new 0 0 17 17" xml:space="preserve">
<path id="delete-white" fill="#FFFFFF" d="M0.2222,14.785l1.9928,1.9928c0.2963,0.2963,0.7767,0.2963,1.073,0l4.6754-4.6754
	c0.2963-0.2963,0.7767-0.2963,1.073,0l4.6754,4.6754c0.2963,0.2963,0.7767,0.2963,1.073,0l1.9928-1.9928
	c0.2963-0.2963,0.2963-0.7767,0-1.073l-4.6754-4.6754c-0.2963-0.2963-0.2963-0.7767,0-1.073l4.6754-4.6754
	c0.2963-0.2963,0.2963-0.7767,0-1.073L14.785,0.2222c-0.2963-0.2963-0.7767-0.2963-1.073,0L9.0365,4.8976
	c-0.2963,0.2963-0.7767,0.2963-1.073,0L3.2881,0.2222c-0.2963-0.2963-0.7767-0.2963-1.073,0L0.2222,2.215
	c-0.2963,0.2963-0.2963,0.7767,0,1.073l4.6754,4.6754c0.2963,0.2963,0.2963,0.7767,0,1.073l-4.6754,4.6754
	C-0.0741,14.0082-0.0741,14.4887,0.2222,14.785z"/>
</svg>
