<?xml version="1.0" encoding="utf-8"?>
<!-- Generator: Adobe Illustrator 19.0.0, SVG Export Plug-In . SVG Version: 6.00 Build 0)  -->
<svg version="1.1" id="XMLID_1_" xmlns="http://www.w3.org/2000/svg" xmlns:xlink="http://www.w3.org/1999/xlink" x="0px" y="0px"
	 viewBox="0 0 21.9979 31.9675" enable-background="new 0 0 21.9979 31.9675" xml:space="preserve">
<g id="img_x5F_engine">
	<path id="XMLID_32_" fill="#010101" d="M18.4979,28.4675h1c0.276,0,0.5,0.224,0.5,0.5v2.5c0,0.276-0.224,0.5-0.5,0.5h-1
		c-0.276,0-0.5-0.224-0.5-0.5v-2.5C17.9979,28.6915,18.2219,28.4675,18.4979,28.4675"/>
	<path id="XMLID_31_" fill="#010101" d="M2.4999,28.4675h1c0.276,0,0.5,0.224,0.5,0.5v2.5c0,0.276-0.224,0.5-0.5,0.5h-1
		c-0.276,0-0.5-0.224-0.5-0.5v-2.5C1.9999,28.6915,2.2239,28.4675,2.4999,28.4675"/>
	
		<linearGradient id="XMLID_3_" gradientUnits="userSpaceOnUse" x1="-418.4199" y1="758.7667" x2="-417.4199" y2="758.7667" gradientTransform="matrix(4.4995 8.9989 -8.9989 4.4995 8722.3906 369.4065)">
		<stop  offset="0" style="stop-color:#F04B4B"/>
		<stop  offset="0.9957" style="stop-color:#B92025"/>
		<stop  offset="1" style="stop-color:#B92025"/>
	</linearGradient>
	<path id="XMLID_30_" fill="url(#XMLID_3_)" d="M1.4999,27.4675l-1-1.429V7.5415c0-1,0.5-1.071,1.5-1.071h17.998
		c1,0,1.5,0.5,1.5,1.5v17.997l-1,1.5h-1v2H2.4999v-2H1.4999z"/>
	<path id="XMLID_29_" fill="none" stroke="#351212" stroke-width="0.9999" stroke-linejoin="round" stroke-miterlimit="10" d="
		M1.4999,27.4675l-1-1.429V7.5415c0-1,0.5-1.071,1.5-1.071h17.998c1,0,1.5,0.5,1.5,1.5v17.997l-1,1.5h-1v2H2.4999v-2H1.4999z"/>
	<polyline id="XMLID_28_" fill="#700F11" points="2.9999,28.9675 2.9999,27.4675 2.4999,26.9675 1.7679,26.9675 0.9999,25.9675 
		0.9999,24.9675 7.4989,25.4675 7.9989,25.9675 8.4989,28.4675 13.4989,28.4675 13.9989,25.9675 14.4989,25.4675 20.9979,24.9675 
		20.9979,25.9675 20.2189,26.9675 19.4979,26.9675 18.9979,27.4675 18.9979,28.9675 2.9999,28.9675 	"/>
	<path id="XMLID_27_" fill="#351212" d="M9.9989,28.4675v-2c0-0.276,0.224-0.5,0.5-0.5h1c0.276,0,0.5,0.224,0.5,0.5v2"/>
	<circle id="XMLID_26_" fill="#FFFFFF" cx="4.9999" cy="17.969" r="1.9995"/>
	
		<circle id="XMLID_25_" fill="none" stroke="#620524" stroke-width="0.2" stroke-linejoin="round" stroke-miterlimit="10" cx="4.9999" cy="17.969" r="1.9995"/>
	<circle id="XMLID_24_" fill="#FFFFFF" cx="16.9979" cy="17.969" r="1.9995"/>
	
		<circle id="XMLID_23_" fill="none" stroke="#620524" stroke-width="0.2" stroke-linejoin="round" stroke-miterlimit="10" cx="16.9979" cy="17.969" r="1.9995"/>
	
		<linearGradient id="XMLID_4_" gradientUnits="userSpaceOnUse" x1="-432.2733" y1="727.9187" x2="-431.2733" y2="727.9187" gradientTransform="matrix(4.2347 5.416 -5.2935 4.3328 5687.5483 -804.8667)">
		<stop  offset="0" style="stop-color:#FFFFFF"/>
		<stop  offset="0.2478" style="stop-color:#D8DCE9"/>
		<stop  offset="0.9957" style="stop-color:#7D92BC"/>
		<stop  offset="1" style="stop-color:#7D92BC"/>
	</linearGradient>
	<path id="XMLID_22_" fill="url(#XMLID_4_)" d="M1.9999,7.4705h7.999c0.276,0,0.5,0.223,0.5,0.5v5.499c0,0.276-0.224,0.5-0.5,0.5
		h-7.999c-0.276,0-0.5-0.224-0.5-0.5v-5.499C1.4999,7.6935,1.7239,7.4705,1.9999,7.4705z"/>
	<path id="XMLID_21_" fill="none" stroke="#351212" stroke-width="0.4999" stroke-linejoin="round" stroke-miterlimit="10" d="
		M1.9999,7.4705h7.999c0.276,0,0.5,0.223,0.5,0.5v5.499c0,0.276-0.224,0.5-0.5,0.5h-7.999c-0.276,0-0.5-0.224-0.5-0.5v-5.499
		C1.4999,7.6935,1.7239,7.4705,1.9999,7.4705z"/>
	
		<linearGradient id="XMLID_5_" gradientUnits="userSpaceOnUse" x1="-432.2733" y1="727.9186" x2="-431.2733" y2="727.9186" gradientTransform="matrix(4.2348 5.416 -5.2935 4.3328 5697.5815 -804.8703)">
		<stop  offset="0" style="stop-color:#FFFFFF"/>
		<stop  offset="0.2478" style="stop-color:#D8DCE9"/>
		<stop  offset="0.9957" style="stop-color:#7D92BC"/>
		<stop  offset="1" style="stop-color:#7D92BC"/>
	</linearGradient>
	<path id="XMLID_20_" fill="url(#XMLID_5_)" d="M11.9989,7.4705h7.999c0.276,0,0.5,0.223,0.5,0.5v5.499c0,0.276-0.224,0.5-0.5,0.5
		h-7.999c-0.276,0-0.5-0.224-0.5-0.5v-5.499C11.4989,7.6935,11.7229,7.4705,11.9989,7.4705z"/>
	<path id="XMLID_19_" fill="none" stroke="#351212" stroke-width="0.4999" stroke-linejoin="round" stroke-miterlimit="10" d="
		M11.9989,7.4705h7.999c0.276,0,0.5,0.223,0.5,0.5v5.499c0,0.276-0.224,0.5-0.5,0.5h-7.999c-0.276,0-0.5-0.224-0.5-0.5v-5.499
		C11.4989,7.6935,11.7229,7.4705,11.9989,7.4705z"/>
	<path id="XMLID_18_" fill="#545454" d="M8.4989,5.9705v-0.5c0-0.5,0.5-1,1-1h3c0.5,0,1,0.5,1,1v0.5"/>
	<path id="XMLID_17_" fill="none" stroke="#010101" stroke-width="0.9999" stroke-linejoin="round" stroke-miterlimit="10" d="
		M8.4989,5.9705v-0.5c0-0.5,0.5-1,1-1h3c0.5,0,1,0.5,1,1v0.5"/>
	
		<path id="XMLID_16_" fill="none" stroke="#010101" stroke-width="1.4998" stroke-linecap="round" stroke-linejoin="round" stroke-miterlimit="10" d="
		M2.9999,2.4705c0.5-0.666,1-1.333,2.333-1.583c1.333-0.25,3.5-0.083,5.666-0.083c2.166,0,4.333-0.167,5.666,0.083
		s1.833,0.917,2.333,1.583"/>
	
		<line id="XMLID_15_" fill="none" stroke="#010101" stroke-width="0.9999" stroke-linejoin="round" stroke-miterlimit="10" x1="13.2709" y1="4.7445" x2="15.4979" y2="0.9705"/>
	
		<line id="XMLID_14_" fill="none" stroke="#010101" stroke-width="0.9999" stroke-linejoin="round" stroke-miterlimit="10" x1="8.7249" y1="4.7605" x2="6.4999" y2="0.9705"/>
	
		<line id="XMLID_12_" fill="none" stroke="#010101" stroke-width="0.9999" stroke-linejoin="round" stroke-miterlimit="10" x1="10.9989" y1="4.4705" x2="10.9989" y2="0.4715"/>
	
		<linearGradient id="XMLID_6_" gradientUnits="userSpaceOnUse" x1="-462.2793" y1="655.9217" x2="-461.2793" y2="655.9217" gradientTransform="matrix(2.9996 2.4997 -2.4997 2.9996 3030.269 -785.9985)">
		<stop  offset="0" style="stop-color:#6C6C6C"/>
		<stop  offset="0.2807" style="stop-color:#4F5050"/>
		<stop  offset="0.9957" style="stop-color:#010101"/>
		<stop  offset="1" style="stop-color:#010101"/>
	</linearGradient>
	<path id="XMLID_10_" fill="url(#XMLID_6_)" d="M3.9999,25.9675h2.999c0.277,0,0.5,0.224,0.5,0.5v1.5c0,0.276-0.223,0.5-0.5,0.5
		h-2.999c-0.276,0-0.5-0.224-0.5-0.5v-1.5C3.4999,26.1915,3.7239,25.9675,3.9999,25.9675"/>
	
		<linearGradient id="XMLID_7_" gradientUnits="userSpaceOnUse" x1="-462.2793" y1="655.9217" x2="-461.2793" y2="655.9217" gradientTransform="matrix(2.9996 2.4997 -2.4997 2.9996 3041.2676 -785.9985)">
		<stop  offset="0" style="stop-color:#6C6C6C"/>
		<stop  offset="0.2807" style="stop-color:#4F5050"/>
		<stop  offset="0.9957" style="stop-color:#010101"/>
		<stop  offset="1" style="stop-color:#010101"/>
	</linearGradient>
	<path id="XMLID_9_" fill="url(#XMLID_7_)" d="M14.9979,25.9675h3c0.276,0,0.5,0.224,0.5,0.5v1.5c0,0.276-0.224,0.5-0.5,0.5h-3
		c-0.276,0-0.499-0.224-0.499-0.5v-1.5C14.4989,26.1915,14.7219,25.9675,14.9979,25.9675"/>
</g>
</svg>
