<?xml version="1.0" encoding="utf-8"?>
<!-- Generator: Adobe Illustrator 19.0.0, SVG Export Plug-In . SVG Version: 6.00 Build 0)  -->
<svg version="1.1" id="XMLID_2_" xmlns="http://www.w3.org/2000/svg" xmlns:xlink="http://www.w3.org/1999/xlink" x="0px" y="0px"
	 viewBox="0 0 31.9961 31.996" enable-background="new 0 0 31.9961 31.996" xml:space="preserve">
<g id="img_x5F_func20">
	<path id="XMLID_114_" fill="#FFFFFF" d="M18.237,25.347c-0.197,0.949-0.442,1.588-0.735,1.917c-0.293,0.329-0.828,0.483-1.604,0.46
		h-5.601c0.265-0.871,0.64-1.62,1.127-2.246c0.488-0.626,1.109-1.18,1.864-1.663c0.751-0.473,1.499-0.934,2.245-1.383
		c0.746-0.45,1.399-0.934,1.961-1.452c0.51-0.471,0.95-1.027,1.32-1.666c0.37-0.64,0.564-1.35,0.582-2.129
		c0.026-1.095-0.392-2.056-1.254-2.882c-0.862-0.827-2.324-1.261-4.386-1.304c-1.756,0.042-3.086,0.41-3.991,1.104
		c-0.905,0.694-1.36,1.462-1.364,2.304c0.004,0.447,0.112,0.788,0.323,1.021c0.211,0.232,0.498,0.35,0.859,0.351
		c0.4,0.007,0.728-0.081,0.985-0.263c0.257-0.182,0.457-0.498,0.6-0.949c0.271-0.972,0.616-1.628,1.035-1.969
		c0.418-0.341,0.892-0.5,1.419-0.478c0.552-0.022,1.055,0.16,1.509,0.544c0.455,0.384,0.696,1.102,0.723,2.155
		c-0.002,0.84-0.216,1.571-0.642,2.192c-0.425,0.62-1.052,1.231-1.88,1.832c-1.331,0.943-2.446,2.068-3.344,3.373
		c-0.899,1.306-1.562,3.096-1.989,5.372l0.469,0.409h10.338l0.702-4.513L18.237,25.347"/>
	<path id="XMLID_111_" fill="#FFFFFF" d="M25.922,14.091c0.621-0.034,1.166,0.257,1.635,0.873c0.286,0.452,0.521,1.192,0.705,2.221
		c0.184,1.028,0.279,2.451,0.285,4.268c-0.004,1.784-0.087,3.184-0.25,4.198c-0.163,1.015-0.381,1.749-0.654,2.202
		c-0.235,0.386-0.495,0.659-0.78,0.819c-0.284,0.16-0.597,0.238-0.941,0.232c-0.334,0.006-0.645-0.072-0.933-0.232
		c-0.288-0.16-0.551-0.433-0.788-0.819c-0.264-0.453-0.479-1.187-0.645-2.202c-0.167-1.014-0.253-2.414-0.258-4.198
		c0.004-1.819,0.097-3.244,0.279-4.277c0.182-1.032,0.426-1.77,0.732-2.212c0.313-0.419,0.622-0.673,0.927-0.764
		C25.542,14.109,25.77,14.073,25.922,14.091 M25.922,29.997c1.772-0.005,3.154-0.563,4.146-1.674
		c1.296-1.414,1.939-3.711,1.928-6.892c-0.015-2.956-0.552-5.105-1.611-6.448c-1.058-1.344-2.546-2.005-4.463-1.984
		c-0.879,0.004-1.649,0.137-2.31,0.397c-0.661,0.26-1.23,0.618-1.705,1.076c-0.712,0.719-1.232,1.663-1.559,2.833
		c-0.327,1.17-0.488,2.545-0.483,4.126c-0.018,3.181,0.626,5.478,1.933,6.892c0.541,0.572,1.168,0.995,1.881,1.268
		C24.391,29.863,25.139,29.999,25.922,29.997z"/>
	<path id="XMLID_110_" fill="#FFFFFF" d="M5.363,26.881c-0.009,0.55-0.019,1.101-0.068,1.62c-0.05,0.519-0.14,1.007-0.316,1.442
		c-0.175,0.435-0.435,0.816-0.792,1.15c-0.356,0.333-0.808,0.618-1.279,0.761c-0.47,0.142-0.959,0.142-1.447,0.142H0v-1.335
		c0.366,0,0.733,0,1.033-0.078c0.3-0.079,0.535-0.235,0.726-0.466c0.191-0.231,0.338-0.536,0.417-1.088
		c0.08-0.552,0.091-1.35,0.102-2.148V10.799H0v-0.771c0.478-0.093,0.795-0.165,0.952-0.217c0.157-0.053,0.307-0.132,0.452-0.238
		c0.145-0.107,0.27-0.259,0.377-0.458c0.106-0.199,0.2-0.455,0.28-0.769c0.08-0.313,0.147-0.755,0.199-1.325
		c0.112-1.342,0.356-2.432,0.732-3.269C3.368,2.914,3.915,2.2,4.634,1.609c0.719-0.59,1.488-1.006,2.308-1.247
		C7.762,0.121,8.724,0,9.828,0c0.973,0,1.798,0.067,2.477,0.199v3.272h-1.928c-0.233-0.703-0.506-1.2-0.82-1.491
		C9.244,1.689,8.804,1.543,8.238,1.543c-0.406,0-0.747,0.055-1.022,0.166c-0.275,0.11-0.53,0.283-0.765,0.518
		c-0.235,0.235-0.435,0.549-0.6,0.943C5.687,3.564,5.564,4.054,5.484,4.64C5.403,5.227,5.363,5.99,5.363,6.93v1.941h4.628v1.928
		H5.363V26.881"/>
</g>
</svg>
