<?xml version="1.0" encoding="utf-8"?>
<!-- Generator: Adobe Illustrator 19.0.0, SVG Export Plug-In . SVG Version: 6.00 Build 0)  -->
<svg version="1.1" id="XMLID_2_" xmlns="http://www.w3.org/2000/svg" xmlns:xlink="http://www.w3.org/1999/xlink" x="0px" y="0px"
	 viewBox="0 0 30.1291 31.996" enable-background="new 0 0 30.1291 31.996" xml:space="preserve">
<g id="img_x5F_func10">
	<path id="XMLID_73_" fill="#FFFFFF" d="M12.321,26.902c0.037,0.833-0.077,1.379-0.344,1.638c-0.266,0.259-0.911,0.376-1.934,0.352
		v1.105h7.703v-1.105c-0.949,0.024-1.552-0.093-1.808-0.352c-0.257-0.259-0.369-0.805-0.335-1.638V13.229l-0.392-0.23
		c-0.729,0.392-1.498,0.751-2.306,1.077c-0.808,0.327-1.777,0.669-2.906,1.026l0.111,1.121c0.652-0.252,1.18-0.389,1.586-0.412
		c0.24-0.003,0.406,0.118,0.496,0.363c0.091,0.246,0.133,0.635,0.129,1.169V26.902"/>
	<path id="XMLID_70_" fill="#FFFFFF" d="M24.055,14.091c0.621-0.034,1.166,0.257,1.635,0.873c0.286,0.452,0.521,1.192,0.705,2.221
		c0.184,1.028,0.279,2.451,0.285,4.268c-0.004,1.784-0.087,3.184-0.25,4.198c-0.163,1.015-0.381,1.749-0.654,2.202
		c-0.235,0.386-0.495,0.659-0.78,0.819c-0.284,0.16-0.598,0.238-0.941,0.232c-0.334,0.006-0.645-0.072-0.933-0.232
		s-0.551-0.433-0.788-0.819c-0.264-0.453-0.479-1.187-0.645-2.202c-0.167-1.014-0.253-2.414-0.258-4.198
		c0.004-1.818,0.097-3.244,0.279-4.277c0.182-1.032,0.426-1.77,0.732-2.212c0.313-0.418,0.622-0.673,0.927-0.764
		C23.675,14.109,23.903,14.073,24.055,14.091 M24.055,29.997c1.772-0.005,3.153-0.563,4.146-1.674
		c1.296-1.414,1.939-3.711,1.928-6.892c-0.015-2.956-0.552-5.105-1.611-6.448c-1.058-1.344-2.546-2.005-4.463-1.984
		c-0.879,0.004-1.649,0.137-2.31,0.397c-0.662,0.26-1.23,0.618-1.705,1.076c-0.712,0.719-1.232,1.663-1.559,2.833
		c-0.327,1.17-0.488,2.545-0.483,4.126c-0.018,3.181,0.626,5.478,1.933,6.892c0.541,0.572,1.168,0.995,1.881,1.268
		C22.524,29.863,23.272,29.999,24.055,29.997z"/>
	<path id="XMLID_69_" fill="#FFFFFF" d="M5.363,26.881c-0.009,0.55-0.019,1.101-0.068,1.62c-0.05,0.519-0.14,1.007-0.316,1.442
		c-0.175,0.435-0.435,0.816-0.792,1.15c-0.356,0.333-0.808,0.618-1.279,0.761c-0.47,0.142-0.959,0.142-1.447,0.142H0v-1.335
		c0.366,0,0.733,0,1.033-0.078c0.3-0.079,0.535-0.235,0.726-0.466s0.338-0.536,0.417-1.088c0.08-0.552,0.091-1.35,0.102-2.148
		V10.799H0v-0.771c0.478-0.093,0.795-0.165,0.952-0.217c0.157-0.053,0.307-0.132,0.452-0.238c0.145-0.107,0.27-0.259,0.377-0.458
		c0.106-0.199,0.2-0.455,0.28-0.769c0.08-0.313,0.147-0.755,0.199-1.325c0.112-1.342,0.356-2.432,0.732-3.269
		C3.368,2.914,3.915,2.2,4.634,1.609c0.719-0.59,1.488-1.006,2.308-1.247C7.762,0.121,8.724,0,9.828,0
		c0.973,0,1.798,0.067,2.477,0.199v3.272h-1.928c-0.233-0.703-0.506-1.2-0.82-1.491C9.244,1.689,8.804,1.543,8.238,1.543
		c-0.406,0-0.747,0.055-1.022,0.166c-0.275,0.11-0.53,0.283-0.765,0.518c-0.235,0.235-0.435,0.549-0.6,0.943
		C5.687,3.564,5.564,4.054,5.484,4.64C5.403,5.227,5.363,5.99,5.363,6.93v1.941h4.628v1.928H5.363V26.881"/>
</g>
</svg>
