<?xml version="1.0" encoding="utf-8"?>
<!-- Generator: Adobe Illustrator 19.0.0, SVG Export Plug-In . SVG Version: 6.00 Build 0)  -->
<svg version="1.1" id="XMLID_1_" xmlns="http://www.w3.org/2000/svg" xmlns:xlink="http://www.w3.org/1999/xlink" x="0px" y="0px"
	 viewBox="0 0 27.996 31.996" enable-background="new 0 0 27.996 31.996" xml:space="preserve">
<g id="img_x5F_func05">
	<path id="XMLID_53_" fill="#FFFFFF" d="M16.736,19.341c0.953-1.442,2.156-2.182,3.608-2.221c1.362,0.079,2.253,0.696,2.675,1.852
		c0.421,1.156,0.612,2.379,0.572,3.67c-0.002,1.002-0.067,1.854-0.194,2.556c-0.127,0.703-0.303,1.292-0.527,1.768
		c-0.569,1.056-1.346,1.602-2.332,1.636c-0.846-0.039-1.484-0.4-1.914-1.081c-0.532-0.979-0.995-1.885-1.388-2.717
		c-0.223-0.374-0.471-0.634-0.742-0.782c-0.272-0.147-0.561-0.218-0.868-0.211c-0.42-0.003-0.793,0.148-1.12,0.452
		c-0.327,0.305-0.499,0.777-0.517,1.417c0.042,1.19,0.659,2.198,1.852,3.024c1.194,0.826,2.713,1.257,4.559,1.293
		c1.736,0.079,3.408-0.395,5.015-1.422c1.607-1.027,2.468-3.082,2.581-6.167c-0.01-2.106-0.585-3.742-1.724-4.908
		c-1.139-1.166-2.782-1.757-4.929-1.775c-0.937,0.004-1.734,0.104-2.39,0.298c-0.656,0.195-1.21,0.459-1.662,0.793l-0.055-0.026
		l0.86-5.393h8.341l0.848-3.398h-1.368c-0.083,0.25-0.238,0.409-0.465,0.48c-0.227,0.07-0.683,0.101-1.368,0.093h-7.542
		l-1.36,10.331L16.736,19.341"/>
	<path id="XMLID_52_" fill="#FFFFFF" d="M5.363,26.881c-0.009,0.55-0.019,1.101-0.068,1.62c-0.05,0.519-0.141,1.007-0.316,1.442
		c-0.175,0.435-0.436,0.816-0.792,1.15c-0.356,0.333-0.808,0.618-1.279,0.761c-0.47,0.142-0.959,0.142-1.448,0.142H0v-1.335
		c0.366,0,0.732,0,1.033-0.078c0.3-0.079,0.534-0.235,0.725-0.466c0.191-0.231,0.339-0.536,0.418-1.088
		c0.08-0.552,0.091-1.35,0.102-2.148V10.799H0v-0.771c0.478-0.093,0.795-0.165,0.952-0.217c0.157-0.052,0.307-0.132,0.452-0.238
		c0.145-0.107,0.27-0.259,0.377-0.458C1.887,8.916,1.98,8.66,2.061,8.346c0.08-0.313,0.146-0.755,0.199-1.325
		c0.112-1.342,0.356-2.432,0.732-3.269C3.367,2.914,3.915,2.2,4.634,1.609c0.719-0.59,1.488-1.006,2.308-1.247
		C7.761,0.121,8.724,0,9.828,0c0.973,0,1.798,0.067,2.477,0.199v3.272h-1.928c-0.233-0.703-0.506-1.2-0.82-1.491
		c-0.313-0.291-0.753-0.437-1.32-0.437c-0.405,0-0.746,0.055-1.021,0.166c-0.275,0.11-0.53,0.283-0.765,0.518
		c-0.235,0.235-0.435,0.549-0.6,0.943C5.686,3.564,5.564,4.054,5.484,4.64C5.403,5.227,5.363,5.99,5.363,6.93v1.941h4.628v1.928
		H5.363V26.881"/>
</g>
</svg>
