<?xml version="1.0" encoding="utf-8"?>
<!-- Generator: Adobe Illustrator 19.0.0, SVG Export Plug-In . SVG Version: 6.00 Build 0)  -->
<svg version="1.1" id="XMLID_2_" xmlns="http://www.w3.org/2000/svg" xmlns:xlink="http://www.w3.org/1999/xlink" x="0px" y="0px"
	 viewBox="0 0 31.9969 31.996" enable-background="new 0 0 31.9969 31.996" xml:space="preserve">
<g id="img_x5F_func28">
	<path id="XMLID_145_" fill="#FFFFFF" d="M18.237,25.347c-0.197,0.949-0.442,1.588-0.735,1.917c-0.293,0.329-0.828,0.483-1.605,0.46
		h-5.6c0.264-0.871,0.64-1.62,1.127-2.246s1.108-1.18,1.863-1.663c0.752-0.473,1.5-0.934,2.246-1.383
		c0.746-0.45,1.399-0.934,1.961-1.452c0.509-0.471,0.949-1.027,1.32-1.666c0.37-0.64,0.564-1.35,0.582-2.129
		c0.026-1.095-0.392-2.056-1.254-2.882c-0.863-0.827-2.324-1.261-4.386-1.304c-1.756,0.042-3.086,0.41-3.992,1.104
		c-0.905,0.694-1.359,1.462-1.364,2.304c0.005,0.447,0.113,0.788,0.324,1.02c0.211,0.233,0.497,0.351,0.859,0.352
		c0.399,0.007,0.728-0.081,0.985-0.263c0.257-0.182,0.457-0.498,0.599-0.949c0.272-0.972,0.616-1.628,1.035-1.969
		c0.419-0.341,0.893-0.5,1.42-0.478c0.552-0.022,1.055,0.16,1.509,0.544c0.454,0.384,0.695,1.102,0.723,2.155
		c-0.002,0.84-0.216,1.571-0.642,2.192c-0.426,0.62-1.052,1.231-1.88,1.832c-1.331,0.943-2.446,2.068-3.344,3.373
		c-0.899,1.306-1.562,3.096-1.989,5.372l0.468,0.409h10.339l0.702-4.513L18.237,25.347"/>
	<path id="XMLID_141_" fill="#FFFFFF" d="M25.873,28.904c-0.83-0.007-1.501-0.29-2.013-0.849c-0.512-0.56-0.776-1.349-0.791-2.37
		c-0.003-0.681,0.145-1.301,0.446-1.86c0.3-0.56,0.775-1.028,1.423-1.404c0.74,0.271,1.51,0.696,2.31,1.274
		c0.8,0.579,1.233,1.369,1.299,2.373c-0.036,1.034-0.329,1.768-0.881,2.203C27.115,28.706,26.517,28.917,25.873,28.904
		 M25.894,14.091c1.147,0.087,1.855,0.481,2.123,1.179c0.268,0.698,0.379,1.176,0.331,1.432c-0.014,0.838-0.191,1.481-0.529,1.931
		c-0.338,0.449-0.748,0.811-1.23,1.086c-0.842-0.335-1.559-0.774-2.154-1.317c-0.594-0.543-0.904-1.207-0.931-1.992
		c-0.004-0.639,0.188-1.18,0.576-1.624C24.467,14.342,25.072,14.11,25.894,14.091z M28.329,20.372
		c0.975-0.349,1.751-0.822,2.328-1.421c0.576-0.599,0.872-1.326,0.885-2.181c-0.025-1.241-0.543-2.179-1.554-2.814
		c-1.01-0.636-2.36-0.955-4.051-0.957c-1.858,0.022-3.259,0.408-4.205,1.159c-0.945,0.751-1.42,1.734-1.422,2.949
		c-0.034,0.604,0.144,1.3,0.531,2.089c0.388,0.788,1.188,1.563,2.399,2.324v0.068c-1.172,0.549-2.028,1.173-2.567,1.871
		c-0.539,0.698-0.805,1.418-0.798,2.158c0.046,1.522,0.638,2.635,1.776,3.338c1.137,0.703,2.545,1.05,4.222,1.042
		c2.207-0.041,3.786-0.526,4.735-1.456c0.949-0.929,1.412-2.061,1.388-3.396c-0.024-0.97-0.376-1.867-1.057-2.691
		c-0.682-0.823-1.551-1.495-2.61-2.015V20.372z"/>
	<path id="XMLID_140_" fill="#FFFFFF" d="M5.363,26.881c-0.009,0.55-0.019,1.101-0.069,1.62c-0.049,0.519-0.14,1.007-0.315,1.442
		c-0.175,0.435-0.436,0.816-0.792,1.15c-0.356,0.333-0.808,0.618-1.279,0.761c-0.47,0.142-0.959,0.142-1.448,0.142H0v-1.335
		c0.366,0,0.732,0,1.033-0.078c0.3-0.079,0.534-0.235,0.725-0.466c0.191-0.231,0.339-0.536,0.418-1.088
		c0.079-0.552,0.091-1.35,0.102-2.148V10.799H0v-0.771c0.478-0.093,0.795-0.165,0.952-0.217c0.157-0.053,0.307-0.132,0.452-0.238
		c0.144-0.107,0.27-0.259,0.376-0.458c0.107-0.199,0.2-0.455,0.281-0.769c0.08-0.313,0.146-0.755,0.199-1.325
		c0.112-1.342,0.356-2.432,0.732-3.269C3.367,2.914,3.915,2.2,4.634,1.609c0.719-0.59,1.488-1.006,2.308-1.247
		C7.761,0.121,8.723,0,9.828,0c0.972,0,1.798,0.067,2.477,0.199v3.272h-1.928c-0.233-0.703-0.507-1.2-0.82-1.491
		c-0.313-0.291-0.753-0.437-1.32-0.437c-0.405,0-0.746,0.055-1.021,0.166c-0.275,0.11-0.53,0.283-0.765,0.518
		c-0.235,0.235-0.435,0.549-0.6,0.943C5.686,3.564,5.564,4.054,5.483,4.64c-0.08,0.587-0.12,1.35-0.12,2.29v1.941h4.628v1.928H5.363
		V26.881"/>
</g>
</svg>
