<?xml version="1.0" encoding="utf-8"?>
<!-- Generator: Adobe Illustrator 19.0.0, SVG Export Plug-In . SVG Version: 6.00 Build 0)  -->
<svg version="1.1" id="XMLID_2_" xmlns="http://www.w3.org/2000/svg" xmlns:xlink="http://www.w3.org/1999/xlink" x="0px" y="0px"
	 viewBox="0 0 30.051 31.996" enable-background="new 0 0 30.051 31.996" xml:space="preserve">
<g id="img_x5F_func14">
	<path id="XMLID_87_" fill="#FFFFFF" d="M12.321,26.902c0.037,0.833-0.077,1.379-0.344,1.638c-0.266,0.259-0.911,0.376-1.934,0.351
		v1.106h7.703v-1.106c-0.949,0.025-1.552-0.092-1.809-0.351c-0.256-0.259-0.368-0.805-0.334-1.638V13.229l-0.392-0.23
		c-0.729,0.392-1.498,0.751-2.306,1.077c-0.808,0.327-1.777,0.669-2.906,1.026l0.111,1.121c0.651-0.252,1.18-0.389,1.585-0.412
		c0.241-0.003,0.407,0.118,0.497,0.363c0.09,0.246,0.133,0.635,0.129,1.169V26.902"/>
	<path id="XMLID_84_" fill="#FFFFFF" d="M24.584,15.963c-0.011,0.308-0.022,0.638-0.031,0.99c-0.009,0.352-0.013,0.676-0.014,0.973
		v6.123h-4.666l3.461-5.961c0.276-0.447,0.505-0.859,0.686-1.236c0.182-0.377,0.332-0.674,0.452-0.889H24.584 M24.539,26.867
		c0.033,0.817-0.055,1.364-0.265,1.641c-0.21,0.276-0.739,0.404-1.588,0.383v1.106h7.008v-1.106
		c-0.743,0.022-1.211-0.103-1.404-0.375c-0.193-0.272-0.276-0.822-0.248-1.649v-1.466h1.808l0.201-1.352h-2.009v-11.05h-3.073
		l-6.971,11.486v0.916h6.541V26.867z"/>
	<path id="XMLID_83_" fill="#FFFFFF" d="M5.363,26.881c-0.009,0.55-0.019,1.101-0.068,1.62c-0.05,0.519-0.141,1.007-0.316,1.442
		c-0.175,0.435-0.436,0.816-0.792,1.15c-0.356,0.333-0.808,0.618-1.279,0.761c-0.47,0.142-0.959,0.142-1.448,0.142H0v-1.335
		c0.366,0,0.733,0,1.033-0.078c0.3-0.079,0.535-0.235,0.725-0.466c0.191-0.231,0.339-0.536,0.418-1.088
		c0.08-0.552,0.091-1.35,0.102-2.148V10.799H0v-0.771c0.478-0.093,0.795-0.165,0.952-0.217c0.157-0.053,0.307-0.132,0.452-0.238
		c0.145-0.107,0.27-0.259,0.377-0.458C1.887,8.916,1.98,8.66,2.061,8.346c0.08-0.313,0.146-0.755,0.199-1.325
		c0.112-1.342,0.356-2.432,0.732-3.269C3.367,2.914,3.915,2.2,4.634,1.609c0.719-0.59,1.488-1.006,2.308-1.247
		C7.761,0.121,8.724,0,9.828,0c0.973,0,1.798,0.067,2.477,0.199v3.272h-1.928c-0.233-0.703-0.506-1.2-0.82-1.491
		c-0.313-0.291-0.753-0.437-1.32-0.437c-0.405,0-0.746,0.055-1.021,0.166c-0.275,0.11-0.53,0.283-0.765,0.518
		s-0.435,0.549-0.6,0.943C5.686,3.564,5.564,4.054,5.484,4.64C5.403,5.227,5.363,5.99,5.363,6.93v1.941h4.628v1.928H5.363V26.881"/>
</g>
</svg>
