<?xml version="1.0" encoding="utf-8"?>
<!-- Generator: Adobe Illustrator 19.0.0, SVG Export Plug-In . SVG Version: 6.00 Build 0)  -->
<svg version="1.1" id="XMLID_1_" xmlns="http://www.w3.org/2000/svg" xmlns:xlink="http://www.w3.org/1999/xlink" x="0px" y="0px"
	 viewBox="0 0 29.869 31.996" enable-background="new 0 0 29.869 31.996" xml:space="preserve">
<g id="img_x5F_func17">
	<path id="XMLID_98_" fill="#FFFFFF" d="M19.359,17.431c0.204-0.944,0.471-1.548,0.8-1.812c0.33-0.264,0.904-0.38,1.721-0.348h4.887
		c-0.801,0.825-1.96,2.564-3.478,5.218s-2.404,5.823-2.658,9.508h3.749c0.017-1.392,0.138-2.726,0.362-4.003
		c0.224-1.277,0.513-2.485,0.865-3.624c0.604-2.058,1.298-3.805,2.081-5.241c0.783-1.436,1.51-2.592,2.181-3.469l-0.357-0.661
		H18.801l-0.803,4.432H19.359"/>
	<path id="XMLID_97_" fill="#FFFFFF" d="M12.321,26.902c0.037,0.833-0.077,1.379-0.344,1.638c-0.266,0.259-0.911,0.376-1.934,0.351
		v1.106h7.703v-1.106c-0.949,0.025-1.552-0.092-1.809-0.351c-0.256-0.259-0.368-0.805-0.335-1.638V13.229l-0.391-0.23
		c-0.729,0.392-1.498,0.751-2.306,1.077c-0.808,0.327-1.777,0.669-2.906,1.026l0.111,1.121c0.651-0.252,1.18-0.389,1.585-0.412
		c0.241-0.003,0.407,0.118,0.497,0.363c0.09,0.246,0.133,0.635,0.129,1.169V26.902"/>
	<path id="XMLID_96_" fill="#FFFFFF" d="M5.363,26.881c-0.009,0.55-0.019,1.101-0.069,1.62c-0.049,0.519-0.14,1.007-0.315,1.442
		c-0.175,0.435-0.436,0.816-0.792,1.15c-0.356,0.333-0.808,0.618-1.279,0.761c-0.47,0.142-0.959,0.142-1.448,0.142H0v-1.335
		c0.366,0,0.732,0,1.033-0.078c0.3-0.079,0.534-0.235,0.725-0.466c0.191-0.231,0.339-0.536,0.418-1.088
		c0.079-0.552,0.091-1.35,0.102-2.148V10.799H0v-0.771c0.478-0.093,0.795-0.165,0.952-0.217c0.157-0.053,0.307-0.132,0.452-0.238
		c0.144-0.107,0.27-0.259,0.377-0.458C1.887,8.916,1.98,8.66,2.061,8.346c0.08-0.313,0.146-0.755,0.199-1.325
		c0.112-1.342,0.356-2.432,0.732-3.269C3.367,2.914,3.915,2.2,4.634,1.609c0.719-0.59,1.488-1.006,2.308-1.247
		C7.761,0.121,8.723,0,9.828,0c0.972,0,1.798,0.067,2.477,0.199v3.272h-1.928c-0.233-0.703-0.507-1.2-0.82-1.491
		c-0.313-0.291-0.753-0.437-1.32-0.437c-0.405,0-0.746,0.055-1.021,0.166c-0.275,0.11-0.53,0.283-0.765,0.518
		s-0.435,0.549-0.6,0.943C5.686,3.564,5.564,4.054,5.484,4.64C5.403,5.227,5.363,5.99,5.363,6.93v1.941h4.628v1.928H5.363V26.881"/>
</g>
</svg>
