<?xml version="1.0" encoding="utf-8"?>
<!-- Generator: Adobe Illustrator 19.0.0, SVG Export Plug-In . SVG Version: 6.00 Build 0)  -->
<svg version="1.1" id="XMLID_2_" xmlns="http://www.w3.org/2000/svg" xmlns:xlink="http://www.w3.org/1999/xlink" x="0px" y="0px"
	 viewBox="0 0 27.996 31.996" enable-background="new 0 0 27.996 31.996" xml:space="preserve">
<g id="img_x5F_func04">
	<path id="XMLID_49_" fill="#FFFFFF" d="M20.922,11.835c-0.015,0.399-0.029,0.827-0.04,1.282c-0.012,0.455-0.018,0.875-0.018,1.259
		v7.923h-6.039l4.478-7.713c0.358-0.578,0.654-1.112,0.889-1.6c0.235-0.488,0.43-0.872,0.585-1.151H20.922 M20.864,25.946
		c0.042,1.058-0.072,1.766-0.343,2.124c-0.272,0.357-0.957,0.523-2.055,0.497v1.43h9.068v-1.43
		c-0.961,0.028-1.567-0.134-1.817-0.486c-0.249-0.352-0.357-1.064-0.321-2.135v-1.897h2.34l0.26-1.75h-2.6v-14.3h-3.977
		l-9.021,14.865v1.185h8.466V25.946z"/>
	<path id="XMLID_48_" fill="#FFFFFF" d="M5.363,26.881c-0.009,0.55-0.019,1.101-0.068,1.62c-0.05,0.519-0.141,1.007-0.316,1.442
		c-0.175,0.435-0.436,0.816-0.792,1.15c-0.356,0.333-0.808,0.618-1.279,0.761c-0.47,0.142-0.959,0.142-1.448,0.142H0v-1.335
		c0.366,0,0.733,0,1.033-0.078c0.3-0.079,0.535-0.235,0.725-0.466c0.191-0.231,0.339-0.536,0.418-1.088
		c0.08-0.552,0.091-1.35,0.102-2.148V10.799H0v-0.771c0.478-0.093,0.795-0.165,0.952-0.217s0.307-0.132,0.452-0.238
		c0.145-0.107,0.27-0.259,0.377-0.458C1.887,8.916,1.98,8.66,2.061,8.346c0.08-0.313,0.146-0.755,0.199-1.325
		c0.112-1.342,0.356-2.432,0.732-3.269C3.367,2.914,3.915,2.2,4.634,1.609c0.719-0.59,1.488-1.006,2.308-1.247
		C7.761,0.121,8.724,0,9.828,0c0.973,0,1.798,0.067,2.477,0.199v3.272h-1.928c-0.233-0.703-0.506-1.2-0.82-1.491
		c-0.313-0.291-0.753-0.437-1.32-0.437c-0.405,0-0.746,0.055-1.021,0.166c-0.275,0.11-0.53,0.283-0.765,0.518
		c-0.235,0.235-0.435,0.549-0.6,0.943C5.686,3.564,5.564,4.054,5.484,4.64C5.403,5.227,5.363,5.99,5.363,6.93v1.941h4.628v1.928
		H5.363V26.881"/>
</g>
</svg>
