<?xml version="1.0" encoding="utf-8"?>
<!-- Generator: Adobe Illustrator 19.0.0, SVG Export Plug-In . SVG Version: 6.00 Build 0)  -->
<svg version="1.1" id="XMLID_2_" xmlns="http://www.w3.org/2000/svg" xmlns:xlink="http://www.w3.org/1999/xlink" x="0px" y="0px"
	 viewBox="0 0 29.4276 31.996" enable-background="new 0 0 29.4276 31.996" xml:space="preserve">
<g id="img_x5F_func06">
	<path id="XMLID_55_" fill="#FFFFFF" d="M24.963,22.855c-0.071,2.516-0.48,4.121-1.224,4.816c-0.745,0.695-1.397,0.999-1.955,0.912
		c-1.116-0.044-1.949-0.682-2.499-1.915s-0.825-2.795-0.824-4.685c0.018-1.103,0.334-2.067,0.949-2.89
		c0.616-0.824,1.426-1.256,2.431-1.298c1.258,0.111,2.101,0.754,2.528,1.93C24.796,20.901,24.994,21.945,24.963,22.855
		 M18.351,18.464c-0.054-2.017,0.175-3.995,0.686-5.932c0.51-1.937,1.541-2.977,3.091-3.119c0.69,0.006,1.243,0.226,1.657,0.659
		c0.415,0.432,0.76,1.038,1.035,1.817c0.249,0.656,0.53,1.15,0.844,1.482c0.313,0.332,0.768,0.498,1.364,0.499
		c0.488-0.017,0.857-0.194,1.105-0.532c0.248-0.337,0.372-0.733,0.373-1.187c-0.015-1.104-0.57-2.061-1.665-2.874
		c-1.095-0.812-2.637-1.238-4.627-1.278c-1.38,0.005-2.545,0.22-3.494,0.644c-0.948,0.425-1.737,1.031-2.366,1.818
		c-0.813,1.036-1.411,2.307-1.791,3.812c-0.381,1.505-0.569,3.144-0.565,4.918c0.024,3.771,0.725,6.52,2.103,8.249
		c1.379,1.728,3.292,2.581,5.74,2.557c2.781-0.059,4.749-0.789,5.905-2.19c1.156-1.401,1.716-3.119,1.68-5.156
		c-0.001-1.81-0.542-3.335-1.62-4.574c-1.079-1.238-2.685-1.883-4.819-1.935c-1.078,0.017-2.001,0.245-2.771,0.686
		c-0.77,0.44-1.364,0.995-1.782,1.665L18.351,18.464z"/>
	<path id="XMLID_54_" fill="#FFFFFF" d="M5.363,26.881c-0.009,0.55-0.019,1.101-0.068,1.62c-0.05,0.519-0.141,1.007-0.316,1.442
		c-0.175,0.435-0.436,0.816-0.792,1.15c-0.356,0.333-0.808,0.618-1.279,0.761c-0.47,0.142-0.959,0.142-1.448,0.142H0v-1.335
		c0.366,0,0.732,0,1.033-0.078c0.3-0.079,0.534-0.235,0.725-0.466c0.191-0.231,0.339-0.536,0.418-1.088
		c0.08-0.552,0.091-1.35,0.102-2.148V10.799H0v-0.771c0.478-0.093,0.795-0.165,0.952-0.217c0.157-0.052,0.307-0.132,0.452-0.238
		c0.145-0.107,0.27-0.259,0.377-0.458C1.887,8.916,1.98,8.66,2.061,8.346c0.08-0.313,0.146-0.755,0.199-1.325
		c0.112-1.342,0.356-2.432,0.732-3.269C3.367,2.914,3.915,2.2,4.634,1.609c0.719-0.59,1.488-1.006,2.308-1.247
		C7.761,0.121,8.724,0,9.828,0c0.973,0,1.798,0.067,2.477,0.199v3.272h-1.928c-0.233-0.703-0.507-1.2-0.82-1.491
		c-0.313-0.291-0.753-0.437-1.32-0.437c-0.405,0-0.746,0.055-1.021,0.166c-0.275,0.11-0.53,0.283-0.765,0.518
		c-0.235,0.235-0.435,0.549-0.6,0.943C5.686,3.564,5.564,4.054,5.484,4.64C5.403,5.227,5.363,5.99,5.363,6.93v1.941h4.628v1.928
		H5.363V26.881"/>
</g>
</svg>
