<?xml version="1.0" encoding="utf-8"?>
<!-- Generator: Adobe Illustrator 19.0.0, SVG Export Plug-In . SVG Version: 6.00 Build 0)  -->
<svg version="1.1" id="XMLID_1_" xmlns="http://www.w3.org/2000/svg" xmlns:xlink="http://www.w3.org/1999/xlink" x="0px" y="0px"
	 viewBox="0 0 31.9972 31.996" enable-background="new 0 0 31.9972 31.996" xml:space="preserve">
<g id="img_x5F_func23">
	<path id="XMLID_123_" fill="#FFFFFF" d="M18.237,25.347c-0.197,0.949-0.442,1.588-0.735,1.917c-0.293,0.329-0.828,0.483-1.604,0.46
		h-5.601c0.264-0.871,0.64-1.62,1.127-2.246c0.488-0.626,1.109-1.18,1.864-1.663c0.751-0.473,1.499-0.934,2.245-1.383
		c0.746-0.45,1.399-0.934,1.961-1.452c0.51-0.471,0.95-1.027,1.32-1.666c0.37-0.64,0.564-1.35,0.582-2.129
		c0.026-1.095-0.392-2.056-1.254-2.882c-0.862-0.827-2.324-1.261-4.386-1.304c-1.756,0.042-3.086,0.41-3.991,1.104
		c-0.906,0.694-1.36,1.462-1.364,2.304c0.004,0.447,0.112,0.788,0.323,1.021c0.211,0.232,0.498,0.35,0.859,0.351
		c0.4,0.007,0.728-0.081,0.985-0.263c0.257-0.182,0.457-0.498,0.6-0.949c0.271-0.972,0.616-1.628,1.035-1.969
		c0.418-0.341,0.892-0.5,1.419-0.478c0.552-0.022,1.055,0.16,1.509,0.544c0.455,0.384,0.695,1.102,0.723,2.155
		c-0.002,0.84-0.216,1.571-0.642,2.192c-0.426,0.62-1.052,1.231-1.88,1.832c-1.331,0.943-2.446,2.068-3.344,3.373
		c-0.899,1.306-1.562,3.096-1.989,5.372l0.469,0.409h10.338l0.702-4.513L18.237,25.347"/>
	<path id="XMLID_122_" fill="#FFFFFF" d="M26.999,20.77c1.499-0.2,2.596-0.646,3.293-1.336c0.696-0.691,1.04-1.493,1.032-2.407
		c0.072-0.771-0.242-1.614-0.94-2.531c-0.698-0.916-2.213-1.416-4.544-1.497c-1.548,0.037-2.781,0.388-3.701,1.054
		s-1.391,1.424-1.414,2.274c0,0.404,0.093,0.736,0.28,0.996c0.187,0.26,0.471,0.395,0.85,0.404c0.535-0.009,0.916-0.155,1.141-0.441
		c0.225-0.285,0.41-0.657,0.554-1.117c0.12-0.413,0.344-0.852,0.671-1.319c0.327-0.466,0.817-0.719,1.471-0.759
		c0.685,0.019,1.225,0.292,1.62,0.819c0.394,0.527,0.595,1.195,0.604,2.004c0,0.726-0.189,1.374-0.566,1.942s-0.944,0.967-1.7,1.197
		c-0.576,0.203-1.131,0.316-1.665,0.338v1.093c1.342-0.006,2.432,0.298,3.269,0.91c0.836,0.613,1.268,1.569,1.293,2.868
		c-0.02,1.214-0.289,2.125-0.806,2.732c-0.518,0.607-1.166,0.91-1.944,0.91c-0.519-0.007-0.94-0.155-1.263-0.444
		c-0.322-0.288-0.593-0.672-0.81-1.152c-0.348-0.648-0.652-1.173-0.913-1.574c-0.304-0.409-0.695-0.603-1.173-0.585
		c-0.413,0.008-0.722,0.139-0.929,0.394c-0.206,0.255-0.309,0.588-0.309,1c-0.002,0.853,0.441,1.63,1.329,2.334
		c0.888,0.704,2.23,1.077,4.026,1.12c2.274-0.058,3.889-0.576,4.846-1.556c0.958-0.979,1.423-2.077,1.395-3.292
		c-0.039-1.36-0.533-2.399-1.482-3.118c-0.948-0.718-2.12-1.116-3.515-1.194V20.77"/>
	<path id="XMLID_121_" fill="#FFFFFF" d="M5.363,26.881c-0.009,0.55-0.019,1.101-0.068,1.62c-0.05,0.519-0.14,1.007-0.316,1.442
		c-0.175,0.435-0.436,0.816-0.792,1.15c-0.356,0.333-0.808,0.618-1.279,0.761c-0.47,0.142-0.959,0.142-1.448,0.142H0v-1.335
		c0.366,0,0.733,0,1.033-0.078c0.3-0.079,0.535-0.235,0.725-0.466c0.191-0.231,0.339-0.536,0.418-1.088
		c0.08-0.552,0.091-1.35,0.102-2.148V10.799H0v-0.771c0.478-0.093,0.795-0.165,0.952-0.217c0.157-0.053,0.307-0.132,0.452-0.238
		c0.145-0.107,0.27-0.259,0.377-0.458C1.887,8.916,1.98,8.66,2.061,8.346c0.08-0.313,0.146-0.755,0.199-1.325
		c0.112-1.342,0.356-2.432,0.732-3.269C3.367,2.914,3.915,2.2,4.634,1.609c0.719-0.59,1.488-1.006,2.308-1.247
		C7.761,0.121,8.724,0,9.828,0c0.973,0,1.798,0.067,2.477,0.199v3.272h-1.928c-0.233-0.703-0.506-1.2-0.82-1.491
		C9.244,1.689,8.804,1.543,8.238,1.543c-0.406,0-0.747,0.055-1.022,0.166c-0.275,0.11-0.53,0.283-0.765,0.518
		s-0.435,0.549-0.6,0.943C5.686,3.564,5.564,4.054,5.484,4.64C5.403,5.227,5.363,5.99,5.363,6.93v1.941h4.628v1.928H5.363V26.881"/>
</g>
</svg>
