<?xml version="1.0" encoding="utf-8"?>
<!-- Generator: Adobe Illustrator 19.0.0, SVG Export Plug-In . SVG Version: 6.00 Build 0)  -->
<svg version="1.1" id="XMLID_1_" xmlns="http://www.w3.org/2000/svg" xmlns:xlink="http://www.w3.org/1999/xlink" x="0px" y="0px"
	 viewBox="0 0 29.9972 31.996" enable-background="new 0 0 29.9972 31.996" xml:space="preserve">
<g id="img_x5F_func13">
	<path id="XMLID_82_" fill="#FFFFFF" d="M12.321,26.902c0.037,0.833-0.077,1.379-0.344,1.638c-0.266,0.259-0.911,0.376-1.934,0.351
		v1.106h7.703v-1.106c-0.949,0.025-1.552-0.092-1.809-0.351c-0.256-0.259-0.368-0.805-0.334-1.638V13.229l-0.392-0.23
		c-0.729,0.392-1.498,0.751-2.306,1.077c-0.808,0.327-1.777,0.669-2.906,1.026l0.111,1.121c0.651-0.252,1.18-0.389,1.585-0.412
		c0.241-0.003,0.407,0.118,0.497,0.363c0.09,0.246,0.133,0.635,0.129,1.169V26.902"/>
	<path id="XMLID_81_" fill="#FFFFFF" d="M24.999,20.77c1.499-0.2,2.597-0.646,3.293-1.336c0.696-0.691,1.04-1.493,1.032-2.407
		c0.072-0.771-0.241-1.614-0.939-2.531c-0.699-0.916-2.214-1.416-4.545-1.497c-1.548,0.037-2.781,0.388-3.701,1.054
		s-1.391,1.424-1.413,2.274c-0.001,0.404,0.093,0.736,0.279,0.996c0.187,0.26,0.471,0.395,0.851,0.404
		c0.535-0.009,0.915-0.155,1.14-0.44c0.226-0.286,0.41-0.658,0.554-1.118c0.121-0.413,0.344-0.852,0.671-1.319
		c0.327-0.466,0.817-0.719,1.471-0.759c0.685,0.019,1.225,0.292,1.62,0.819c0.394,0.527,0.596,1.195,0.604,2.004
		c0,0.726-0.188,1.374-0.565,1.942c-0.377,0.568-0.944,0.967-1.701,1.197c-0.576,0.203-1.131,0.316-1.665,0.338v1.093
		c1.343-0.006,2.432,0.298,3.269,0.911c0.837,0.612,1.268,1.568,1.293,2.867c-0.02,1.214-0.288,2.125-0.806,2.732
		c-0.518,0.607-1.166,0.91-1.943,0.91c-0.52-0.007-0.941-0.155-1.264-0.444c-0.322-0.288-0.592-0.672-0.81-1.152
		c-0.348-0.648-0.652-1.173-0.912-1.574c-0.305-0.409-0.696-0.603-1.174-0.585c-0.413,0.008-0.722,0.139-0.929,0.394
		c-0.206,0.255-0.309,0.588-0.309,1c-0.002,0.853,0.441,1.63,1.329,2.334c0.888,0.704,2.23,1.077,4.026,1.12
		c2.274-0.058,3.89-0.576,4.847-1.556c0.957-0.979,1.422-2.076,1.394-3.292c-0.039-1.36-0.532-2.399-1.481-3.118
		c-0.949-0.718-2.121-1.116-3.516-1.194V20.77"/>
	<path id="XMLID_80_" fill="#FFFFFF" d="M5.363,26.881c-0.009,0.55-0.019,1.101-0.068,1.62c-0.05,0.519-0.14,1.007-0.316,1.442
		c-0.175,0.435-0.436,0.816-0.792,1.15c-0.356,0.333-0.808,0.618-1.279,0.761c-0.47,0.142-0.959,0.142-1.448,0.142H0v-1.335
		c0.366,0,0.733,0,1.033-0.078c0.3-0.079,0.535-0.235,0.725-0.466c0.191-0.231,0.339-0.536,0.418-1.088
		c0.08-0.552,0.091-1.35,0.102-2.148V10.799H0v-0.771c0.478-0.093,0.795-0.165,0.952-0.217c0.157-0.053,0.307-0.132,0.452-0.238
		c0.145-0.107,0.27-0.259,0.377-0.458C1.887,8.916,1.98,8.66,2.061,8.346c0.08-0.313,0.146-0.755,0.199-1.325
		c0.112-1.342,0.356-2.432,0.732-3.269C3.367,2.914,3.915,2.2,4.634,1.609c0.719-0.59,1.488-1.006,2.308-1.247
		C7.761,0.121,8.724,0,9.828,0c0.973,0,1.798,0.067,2.477,0.199v3.272h-1.928c-0.233-0.703-0.506-1.2-0.82-1.491
		C9.244,1.689,8.804,1.543,8.238,1.543c-0.406,0-0.747,0.055-1.022,0.166c-0.275,0.11-0.53,0.283-0.765,0.518
		s-0.435,0.549-0.6,0.943C5.686,3.564,5.564,4.054,5.484,4.64C5.403,5.227,5.363,5.99,5.363,6.93v1.941h4.628v1.928H5.363V26.881"/>
</g>
</svg>
