<?xml version="1.0" encoding="utf-8"?>
<!-- Generator: Adobe Illustrator 19.0.0, SVG Export Plug-In . SVG Version: 6.00 Build 0)  -->
<svg version="1.1" id="XMLID_2_" xmlns="http://www.w3.org/2000/svg" xmlns:xlink="http://www.w3.org/1999/xlink" x="0px" y="0px"
	 viewBox="0 0 29.9969 31.996" enable-background="new 0 0 29.9969 31.996" xml:space="preserve">
<g id="img_x5F_func18">
	<path id="XMLID_104_" fill="#FFFFFF" d="M12.32,26.902c0.038,0.833-0.076,1.379-0.343,1.638c-0.266,0.259-0.911,0.376-1.934,0.351
		v1.106h7.703v-1.106c-0.949,0.025-1.552-0.092-1.809-0.351c-0.256-0.259-0.368-0.805-0.335-1.638V13.229l-0.391-0.23
		c-0.729,0.392-1.498,0.751-2.306,1.077c-0.808,0.327-1.777,0.669-2.906,1.026l0.111,1.121c0.651-0.252,1.18-0.389,1.585-0.412
		c0.241-0.003,0.407,0.118,0.497,0.363c0.09,0.246,0.133,0.635,0.128,1.169V26.902"/>
	<path id="XMLID_103_" fill="#FFFFFF" d="M5.363,26.881c-0.009,0.55-0.019,1.101-0.069,1.62c-0.049,0.519-0.14,1.007-0.315,1.442
		c-0.175,0.435-0.436,0.816-0.792,1.15c-0.356,0.333-0.808,0.618-1.279,0.761c-0.47,0.142-0.959,0.142-1.448,0.142H0v-1.335
		c0.366,0,0.732,0,1.033-0.078c0.3-0.079,0.534-0.235,0.725-0.466c0.191-0.231,0.339-0.536,0.418-1.088
		c0.079-0.552,0.091-1.35,0.102-2.148V10.799H0v-0.771c0.478-0.093,0.795-0.165,0.952-0.217c0.157-0.053,0.307-0.132,0.452-0.238
		c0.144-0.107,0.27-0.259,0.376-0.458c0.107-0.199,0.2-0.455,0.281-0.769c0.08-0.313,0.146-0.755,0.199-1.325
		c0.112-1.342,0.356-2.432,0.732-3.269C3.367,2.914,3.915,2.2,4.634,1.609c0.719-0.59,1.488-1.006,2.308-1.247
		C7.761,0.121,8.723,0,9.828,0c0.972,0,1.798,0.067,2.477,0.199v3.272h-1.928c-0.233-0.703-0.507-1.2-0.82-1.491
		c-0.313-0.291-0.753-0.437-1.32-0.437c-0.405,0-0.746,0.055-1.021,0.166c-0.275,0.11-0.53,0.283-0.765,0.518
		c-0.235,0.235-0.435,0.549-0.6,0.943C5.686,3.564,5.564,4.054,5.483,4.64c-0.08,0.587-0.12,1.35-0.12,2.29v1.941h4.628v1.928H5.363
		V26.881"/>
	<path id="XMLID_99_" fill="#FFFFFF" d="M23.873,28.904c-0.83-0.007-1.501-0.29-2.013-0.849c-0.512-0.56-0.776-1.349-0.79-2.37
		c-0.004-0.681,0.144-1.301,0.445-1.86c0.301-0.56,0.775-1.028,1.424-1.404c0.74,0.271,1.51,0.696,2.309,1.274
		c0.8,0.579,1.233,1.37,1.299,2.373c-0.035,1.034-0.329,1.768-0.88,2.203C25.115,28.706,24.517,28.917,23.873,28.904 M23.894,14.091
		c1.148,0.088,1.855,0.481,2.123,1.179c0.268,0.698,0.379,1.176,0.332,1.432c-0.015,0.838-0.192,1.481-0.53,1.931
		c-0.338,0.449-0.748,0.811-1.23,1.086c-0.841-0.335-1.559-0.774-2.153-1.317c-0.595-0.543-0.905-1.207-0.932-1.992
		c-0.004-0.639,0.188-1.18,0.576-1.624C22.467,14.342,23.072,14.11,23.894,14.091z M26.33,20.372
		c0.974-0.349,1.75-0.822,2.327-1.421s0.872-1.326,0.886-2.181c-0.026-1.241-0.544-2.179-1.554-2.814
		c-1.011-0.636-2.361-0.955-4.052-0.957c-1.858,0.022-3.259,0.408-4.205,1.159c-0.945,0.751-1.419,1.734-1.422,2.95
		c-0.033,0.603,0.144,1.299,0.532,2.088c0.387,0.789,1.187,1.563,2.398,2.324v0.068c-1.172,0.549-2.027,1.173-2.566,1.871
		c-0.54,0.698-0.806,1.418-0.798,2.159c0.046,1.522,0.637,2.634,1.775,3.337c1.137,0.703,2.545,1.05,4.222,1.042
		c2.208-0.041,3.786-0.526,4.735-1.455c0.949-0.93,1.412-2.062,1.388-3.397c-0.023-0.97-0.376-1.867-1.057-2.691
		c-0.681-0.823-1.551-1.495-2.609-2.015V20.372z"/>
</g>
</svg>
