<?xml version="1.0" encoding="utf-8"?>
<!-- Generator: Adobe Illustrator 19.0.0, SVG Export Plug-In . SVG Version: 6.00 Build 0)  -->
<svg version="1.1" id="XMLID_2_" xmlns="http://www.w3.org/2000/svg" xmlns:xlink="http://www.w3.org/1999/xlink" x="0px" y="0px"
	 viewBox="0 0 31.9203 31.996" enable-background="new 0 0 31.9203 31.996" xml:space="preserve">
<g id="img_x5F_func26">
	<path id="XMLID_134_" fill="#FFFFFF" d="M28.47,24.478c-0.055,1.944-0.37,3.185-0.946,3.721c-0.575,0.537-1.079,0.772-1.51,0.705
		c-0.862-0.034-1.506-0.527-1.931-1.48c-0.426-0.952-0.638-2.159-0.637-3.62c0.014-0.852,0.258-1.597,0.733-2.233
		c0.476-0.636,1.102-0.971,1.879-1.003c0.972,0.086,1.623,0.583,1.953,1.492C28.341,22.968,28.494,23.774,28.47,24.478
		 M23.361,21.085c-0.042-1.559,0.135-3.087,0.53-4.584c0.394-1.496,1.191-2.3,2.388-2.41c0.534,0.005,0.961,0.175,1.281,0.509
		c0.321,0.334,0.587,0.802,0.8,1.404c0.192,0.507,0.409,0.889,0.652,1.145c0.242,0.257,0.593,0.385,1.054,0.386
		c0.377-0.013,0.662-0.15,0.854-0.411c0.191-0.261,0.288-0.567,0.288-0.917c-0.012-0.853-0.441-1.593-1.287-2.221
		c-0.846-0.627-2.038-0.956-3.575-0.987c-1.067,0.003-1.966,0.169-2.7,0.497c-0.733,0.328-1.342,0.797-1.828,1.405
		c-0.629,0.801-1.09,1.782-1.384,2.945c-0.294,1.163-0.44,2.43-0.437,3.801c0.019,2.914,0.56,5.038,1.625,6.374
		c1.066,1.336,2.544,1.994,4.436,1.976c2.148-0.046,3.669-0.61,4.563-1.692c0.893-1.083,1.326-2.411,1.298-3.984
		c-0.001-1.399-0.419-2.577-1.252-3.535c-0.834-0.957-2.075-1.455-3.724-1.495c-0.832,0.012-1.546,0.189-2.141,0.529
		c-0.595,0.341-1.054,0.77-1.377,1.288L23.361,21.085z"/>
	<path id="XMLID_133_" fill="#FFFFFF" d="M18.237,25.347c-0.197,0.949-0.442,1.588-0.735,1.917c-0.293,0.329-0.828,0.483-1.604,0.46
		h-5.601c0.264-0.871,0.64-1.62,1.127-2.246s1.109-1.18,1.864-1.663c0.751-0.473,1.499-0.934,2.245-1.383
		c0.746-0.45,1.399-0.934,1.961-1.452c0.51-0.471,0.95-1.027,1.32-1.666c0.37-0.64,0.564-1.35,0.582-2.129
		c0.026-1.095-0.392-2.056-1.254-2.882c-0.862-0.827-2.324-1.261-4.386-1.304c-1.756,0.042-3.086,0.41-3.991,1.104
		c-0.906,0.694-1.36,1.462-1.365,2.304c0.005,0.448,0.113,0.788,0.324,1.021c0.211,0.232,0.498,0.35,0.859,0.351
		c0.4,0.007,0.728-0.081,0.985-0.263c0.257-0.182,0.457-0.498,0.6-0.949c0.271-0.972,0.616-1.628,1.034-1.969
		c0.419-0.341,0.893-0.5,1.42-0.478c0.552-0.022,1.055,0.16,1.509,0.544c0.455,0.384,0.695,1.102,0.723,2.155
		c-0.002,0.84-0.216,1.571-0.642,2.192c-0.426,0.62-1.052,1.231-1.88,1.832c-1.331,0.943-2.446,2.068-3.344,3.373
		c-0.899,1.306-1.562,3.096-1.989,5.372l0.468,0.409h10.339l0.702-4.513L18.237,25.347"/>
	<path id="XMLID_132_" fill="#FFFFFF" d="M5.363,26.881c-0.009,0.55-0.019,1.101-0.068,1.62c-0.05,0.519-0.141,1.007-0.316,1.442
		c-0.175,0.435-0.436,0.816-0.792,1.15c-0.356,0.333-0.808,0.618-1.279,0.761c-0.47,0.142-0.959,0.142-1.448,0.142H0v-1.335
		c0.366,0,0.732,0,1.033-0.078c0.3-0.079,0.534-0.235,0.725-0.466c0.191-0.231,0.339-0.536,0.418-1.088
		c0.08-0.552,0.091-1.35,0.102-2.148V10.799H0v-0.771c0.478-0.093,0.795-0.165,0.952-0.217c0.157-0.053,0.307-0.132,0.452-0.238
		c0.145-0.107,0.27-0.259,0.377-0.458C1.887,8.916,1.98,8.66,2.061,8.346c0.08-0.313,0.146-0.755,0.199-1.325
		c0.112-1.342,0.356-2.432,0.732-3.269C3.367,2.914,3.915,2.2,4.634,1.609c0.719-0.59,1.488-1.006,2.308-1.247
		C7.761,0.121,8.724,0,9.828,0c0.973,0,1.798,0.067,2.477,0.199v3.272h-1.928c-0.233-0.703-0.507-1.2-0.82-1.491
		c-0.313-0.291-0.753-0.437-1.32-0.437c-0.405,0-0.746,0.055-1.021,0.166c-0.275,0.11-0.53,0.283-0.765,0.518
		s-0.435,0.549-0.6,0.943C5.686,3.564,5.564,4.054,5.484,4.64C5.403,5.227,5.363,5.99,5.363,6.93v1.941h4.628v1.928H5.363V26.881"/>
</g>
</svg>
