<?xml version="1.0" encoding="utf-8"?>
<!-- Generator: Adobe Illustrator 19.0.0, SVG Export Plug-In . SVG Version: 6.00 Build 0)  -->
<svg version="1.1" id="XMLID_1_" xmlns="http://www.w3.org/2000/svg" xmlns:xlink="http://www.w3.org/1999/xlink" x="0px" y="0px"
	 viewBox="0 0 29.9962 31.996" enable-background="new 0 0 29.9962 31.996" xml:space="preserve">
<g id="img_x5F_func19">
	<path id="XMLID_107_" fill="#FFFFFF" d="M21.523,18.434c0.001-1.353,0.208-2.411,0.622-3.176c0.414-0.764,1.03-1.154,1.846-1.167
		c0.849,0.034,1.487,0.523,1.914,1.465c0.428,0.943,0.642,2.135,0.642,3.575c-0.016,0.895-0.265,1.659-0.746,2.292
		c-0.482,0.634-1.1,0.964-1.854,0.993c-1.094-0.118-1.782-0.686-2.063-1.704C21.602,19.694,21.482,18.934,21.523,18.434
		 M26.654,21.899c-0.003,2.626-0.347,4.557-1.032,5.792c-0.515,0.809-1.183,1.213-2.006,1.213c-0.706-0.025-1.216-0.238-1.528-0.64
		c-0.312-0.401-0.551-0.839-0.716-1.314c-0.2-0.515-0.42-0.899-0.66-1.151c-0.24-0.251-0.595-0.377-1.064-0.376
		c-0.378,0.01-0.663,0.141-0.854,0.393c-0.192,0.252-0.288,0.562-0.289,0.932c0.004,0.823,0.433,1.561,1.288,2.214
		c0.856,0.653,2.115,0.997,3.779,1.035c2.193-0.006,3.795-0.73,4.806-2.171c0.58-0.842,0.996-1.842,1.248-2.998
		c0.252-1.157,0.376-2.471,0.37-3.942c-0.035-2.701-0.609-4.693-1.722-5.977s-2.556-1.921-4.327-1.91
		c-2.182,0.06-3.715,0.64-4.597,1.738c-0.883,1.099-1.308,2.354-1.276,3.764c0.003,1.507,0.428,2.744,1.273,3.713
		c0.846,0.968,2.093,1.468,3.74,1.502c0.807-0.01,1.503-0.181,2.088-0.513c0.586-0.332,1.05-0.767,1.393-1.304H26.654z"/>
	<path id="XMLID_106_" fill="#FFFFFF" d="M12.32,26.902c0.038,0.833-0.076,1.379-0.343,1.638c-0.266,0.259-0.911,0.376-1.934,0.351
		v1.106h7.703v-1.106c-0.949,0.025-1.552-0.092-1.809-0.351c-0.256-0.259-0.368-0.805-0.335-1.638V13.229l-0.391-0.23
		c-0.729,0.392-1.498,0.751-2.306,1.077c-0.808,0.327-1.777,0.669-2.907,1.026l0.112,1.121c0.651-0.252,1.18-0.389,1.585-0.412
		c0.241-0.003,0.407,0.118,0.497,0.363c0.09,0.246,0.133,0.635,0.128,1.169V26.902"/>
	<path id="XMLID_105_" fill="#FFFFFF" d="M5.363,26.881c-0.009,0.55-0.019,1.101-0.069,1.62c-0.049,0.519-0.14,1.007-0.315,1.442
		c-0.175,0.435-0.436,0.816-0.792,1.15c-0.356,0.333-0.808,0.618-1.279,0.761c-0.47,0.142-0.959,0.142-1.448,0.142H0v-1.335
		c0.366,0,0.732,0,1.033-0.078c0.3-0.079,0.534-0.235,0.725-0.466c0.191-0.231,0.339-0.536,0.418-1.088
		c0.079-0.552,0.09-1.35,0.102-2.148V10.799H0v-0.771c0.478-0.093,0.795-0.165,0.952-0.217c0.157-0.053,0.307-0.132,0.452-0.238
		c0.144-0.107,0.27-0.259,0.376-0.458c0.107-0.199,0.2-0.455,0.281-0.769c0.08-0.313,0.146-0.755,0.199-1.325
		c0.112-1.342,0.356-2.432,0.732-3.269C3.367,2.914,3.915,2.2,4.634,1.609c0.719-0.59,1.488-1.006,2.308-1.247
		C7.761,0.121,8.723,0,9.828,0c0.972,0,1.798,0.067,2.477,0.199v3.272h-1.928c-0.233-0.703-0.507-1.2-0.82-1.491
		c-0.313-0.291-0.753-0.437-1.32-0.437c-0.405,0-0.746,0.055-1.021,0.166c-0.275,0.11-0.53,0.283-0.765,0.518
		c-0.235,0.235-0.435,0.549-0.6,0.943C5.686,3.564,5.564,4.054,5.483,4.64c-0.08,0.587-0.12,1.35-0.12,2.29v1.941h4.628v1.928H5.363
		V26.881"/>
</g>
</svg>
