<?xml version="1.0" encoding="utf-8"?>
<!-- Generator: Adobe Illustrator 19.0.0, SVG Export Plug-In . SVG Version: 6.00 Build 0)  -->
<svg version="1.1" id="XMLID_1_" xmlns="http://www.w3.org/2000/svg" xmlns:xlink="http://www.w3.org/1999/xlink" x="0px" y="0px"
	 viewBox="0 0 29.4263 31.996" enable-background="new 0 0 29.4263 31.996" xml:space="preserve">
<g id="img_x5F_func09">
	<path id="XMLID_66_" fill="#FFFFFF" d="M18.461,15.033c0.002-1.75,0.27-3.12,0.806-4.11c0.536-0.989,1.332-1.493,2.388-1.51
		c1.099,0.044,1.924,0.676,2.477,1.896c0.554,1.22,0.83,2.762,0.831,4.626c-0.021,1.158-0.343,2.147-0.966,2.967
		c-0.623,0.819-1.423,1.248-2.399,1.285c-1.416-0.153-2.306-0.889-2.67-2.206C18.564,16.663,18.408,15.681,18.461,15.033
		 M25.101,19.517c-0.003,3.398-0.448,5.897-1.336,7.497c-0.665,1.046-1.53,1.569-2.595,1.569c-0.914-0.032-1.573-0.309-1.977-0.828
		c-0.405-0.52-0.713-1.087-0.927-1.701c-0.259-0.667-0.543-1.164-0.854-1.489c-0.311-0.326-0.77-0.489-1.377-0.487
		c-0.489,0.013-0.858,0.183-1.106,0.508c-0.248,0.326-0.372,0.728-0.373,1.207c0.005,1.065,0.56,2.02,1.667,2.865
		c1.107,0.844,2.737,1.291,4.89,1.339c2.838-0.008,4.911-0.944,6.22-2.809c0.75-1.09,1.288-2.384,1.615-3.881
		c0.326-1.497,0.486-3.197,0.478-5.1c-0.045-3.496-0.788-6.074-2.228-7.735c-1.441-1.662-3.307-2.486-5.6-2.473
		c-2.824,0.079-4.807,0.829-5.949,2.25c-1.142,1.422-1.693,3.046-1.651,4.871c0.004,1.95,0.554,3.552,1.648,4.805
		c1.094,1.253,2.708,1.9,4.84,1.943c1.043-0.012,1.944-0.234,2.702-0.663c0.758-0.43,1.359-0.993,1.803-1.688H25.101z"/>
	<path id="XMLID_65_" fill="#FFFFFF" d="M5.363,26.881c-0.009,0.55-0.019,1.101-0.069,1.62c-0.049,0.519-0.14,1.007-0.315,1.442
		c-0.175,0.435-0.436,0.816-0.792,1.15c-0.356,0.333-0.808,0.618-1.279,0.761c-0.47,0.142-0.959,0.142-1.448,0.142H0v-1.335
		c0.366,0,0.732,0,1.033-0.078c0.3-0.079,0.534-0.235,0.725-0.466c0.191-0.231,0.339-0.536,0.418-1.088
		c0.079-0.552,0.091-1.35,0.102-2.148V10.799H0v-0.771c0.478-0.093,0.795-0.165,0.952-0.217c0.157-0.052,0.307-0.132,0.452-0.238
		c0.144-0.107,0.27-0.259,0.376-0.458c0.107-0.199,0.2-0.455,0.281-0.769c0.08-0.313,0.146-0.755,0.199-1.325
		c0.112-1.342,0.356-2.432,0.732-3.269C3.367,2.914,3.915,2.2,4.634,1.609c0.719-0.59,1.488-1.006,2.308-1.247
		C7.761,0.121,8.723,0,9.828,0c0.972,0,1.798,0.067,2.477,0.199v3.272h-1.928c-0.233-0.703-0.507-1.2-0.82-1.491
		c-0.313-0.291-0.753-0.437-1.32-0.437c-0.405,0-0.746,0.055-1.021,0.166c-0.275,0.11-0.53,0.283-0.765,0.518
		c-0.235,0.235-0.435,0.549-0.6,0.943S5.564,4.054,5.483,4.64c-0.08,0.587-0.12,1.35-0.12,2.29v1.941h4.628v1.928H5.363V26.881"/>
</g>
</svg>
