<?xml version="1.0" encoding="utf-8"?>
<!-- Generator: Adobe Illustrator 19.0.0, SVG Export Plug-In . SVG Version: 6.00 Build 0)  -->
<svg version="1.1" id="XMLID_2_" xmlns="http://www.w3.org/2000/svg" xmlns:xlink="http://www.w3.org/1999/xlink" x="0px" y="0px"
	 viewBox="0 0 29.6841 31.996" enable-background="new 0 0 29.6841 31.996" xml:space="preserve">
<g id="img_x5F_func08">
	<path id="XMLID_64_" fill="#FFFFFF" d="M5.363,26.881c-0.009,0.55-0.019,1.101-0.069,1.62c-0.049,0.519-0.14,1.007-0.315,1.442
		c-0.175,0.435-0.436,0.816-0.792,1.15c-0.356,0.333-0.808,0.618-1.279,0.761c-0.47,0.142-0.959,0.142-1.448,0.142H0v-1.335
		c0.366,0,0.732,0,1.033-0.078c0.3-0.079,0.534-0.235,0.725-0.466c0.191-0.231,0.339-0.536,0.418-1.088
		c0.079-0.552,0.091-1.35,0.102-2.148V10.799H0v-0.771c0.478-0.093,0.795-0.165,0.952-0.217c0.157-0.052,0.307-0.132,0.452-0.238
		c0.144-0.107,0.27-0.259,0.376-0.458c0.107-0.199,0.2-0.455,0.281-0.769c0.08-0.313,0.146-0.755,0.199-1.325
		c0.112-1.342,0.356-2.432,0.732-3.269C3.367,2.914,3.915,2.2,4.634,1.609c0.719-0.59,1.488-1.006,2.308-1.247
		C7.761,0.121,8.723,0,9.828,0c0.972,0,1.798,0.067,2.477,0.199v3.272h-1.928c-0.233-0.703-0.507-1.2-0.82-1.491
		c-0.313-0.291-0.753-0.437-1.32-0.437c-0.405,0-0.746,0.055-1.021,0.166c-0.275,0.11-0.53,0.283-0.765,0.518
		c-0.235,0.235-0.435,0.549-0.6,0.943S5.564,4.054,5.483,4.64c-0.08,0.587-0.12,1.35-0.12,2.29v1.941h4.628v1.928H5.363V26.881"/>
	<path id="XMLID_60_" fill="#FFFFFF" d="M21.76,28.583c-1.074-0.009-1.943-0.376-2.606-1.1c-0.662-0.723-1.003-1.745-1.023-3.066
		c-0.004-0.881,0.188-1.683,0.577-2.407c0.389-0.724,1.003-1.33,1.842-1.818c0.958,0.352,1.954,0.902,2.989,1.65
		c1.035,0.749,1.595,1.772,1.681,3.07c-0.046,1.339-0.426,2.289-1.139,2.852C23.367,28.327,22.593,28.6,21.76,28.583 M21.786,9.413
		c1.486,0.113,2.402,0.622,2.748,1.526c0.347,0.903,0.49,1.521,0.429,1.853c-0.019,1.084-0.248,1.917-0.685,2.499
		c-0.438,0.581-0.968,1.05-1.592,1.405c-1.089-0.433-2.018-1.001-2.787-1.704c-0.769-0.703-1.171-1.562-1.205-2.579
		c-0.005-0.826,0.243-1.526,0.745-2.101C19.94,9.737,20.723,9.438,21.786,9.413z M24.938,17.541
		c1.262-0.451,2.266-1.064,3.012-1.839c0.747-0.775,1.129-1.716,1.146-2.822c-0.033-1.606-0.703-2.82-2.011-3.642
		c-1.307-0.823-3.055-1.236-5.242-1.239c-2.405,0.029-4.219,0.529-5.442,1.501c-1.224,0.972-1.837,2.244-1.841,3.817
		c-0.043,0.78,0.186,1.681,0.688,2.702c0.502,1.021,1.536,2.024,3.104,3.008v0.087c-1.517,0.711-2.624,1.519-3.321,2.422
		c-0.698,0.904-1.042,1.835-1.033,2.794c0.059,1.969,0.825,3.409,2.297,4.319c1.472,0.91,3.294,1.359,5.465,1.348
		c2.856-0.053,4.899-0.68,6.127-1.883s1.827-2.669,1.796-4.396c-0.03-1.255-0.486-2.416-1.368-3.482
		c-0.882-1.066-2.007-1.935-3.377-2.607V17.541z"/>
</g>
</svg>
