<?xml version="1.0" encoding="utf-8"?>
<!-- Generator: Adobe Illustrator 19.0.0, SVG Export Plug-In . SVG Version: 6.00 Build 0)  -->
<svg version="1.1" id="XMLID_1_" xmlns="http://www.w3.org/2000/svg" xmlns:xlink="http://www.w3.org/1999/xlink" x="0px" y="0px"
	 viewBox="0 0 28.821 31.996" enable-background="new 0 0 28.821 31.996" xml:space="preserve">
<g id="img_x5F_func15">
	<path id="XMLID_90_" fill="#FFFFFF" d="M12.321,26.902c0.037,0.833-0.077,1.379-0.344,1.638c-0.266,0.259-0.911,0.376-1.934,0.351
		v1.106h7.703v-1.106c-0.949,0.025-1.552-0.092-1.809-0.351c-0.256-0.259-0.368-0.805-0.334-1.638V13.229l-0.392-0.23
		c-0.729,0.392-1.498,0.751-2.306,1.077c-0.808,0.327-1.777,0.669-2.906,1.026l0.111,1.121c0.651-0.252,1.18-0.389,1.585-0.412
		c0.241-0.003,0.407,0.118,0.497,0.363c0.09,0.246,0.133,0.635,0.129,1.169V26.902"/>
	<path id="XMLID_89_" fill="#FFFFFF" d="M20.121,21.762c0.736-1.113,1.665-1.685,2.787-1.715c1.052,0.06,1.741,0.537,2.067,1.43
		c0.326,0.894,0.473,1.839,0.442,2.836c-0.001,0.775-0.051,1.433-0.15,1.976c-0.098,0.542-0.234,0.998-0.407,1.365
		c-0.44,0.817-1.04,1.238-1.802,1.265c-0.654-0.03-1.147-0.309-1.479-0.836c-0.411-0.756-0.769-1.456-1.072-2.099
		c-0.173-0.289-0.364-0.49-0.574-0.604c-0.21-0.114-0.433-0.168-0.67-0.164c-0.325-0.001-0.614,0.115-0.866,0.35
		s-0.386,0.6-0.399,1.095c0.032,0.919,0.509,1.698,1.431,2.337c0.922,0.638,2.096,0.971,3.522,0.999
		c1.342,0.061,2.634-0.305,3.876-1.099c1.242-0.793,1.907-2.382,1.994-4.765c-0.007-1.628-0.452-2.892-1.332-3.793
		c-0.88-0.901-2.15-1.358-3.809-1.371c-0.724,0.003-1.339,0.08-1.847,0.23c-0.507,0.15-0.935,0.354-1.284,0.612l-0.042-0.019
		l0.664-4.168h6.445l0.656-2.625h-1.057c-0.065,0.192-0.185,0.316-0.36,0.37c-0.175,0.054-0.528,0.078-1.057,0.072h-5.827
		l-1.051,7.983L20.121,21.762"/>
	<path id="XMLID_88_" fill="#FFFFFF" d="M5.363,26.881c-0.009,0.55-0.019,1.101-0.068,1.62c-0.05,0.519-0.141,1.007-0.316,1.442
		c-0.175,0.435-0.436,0.816-0.792,1.15c-0.356,0.333-0.808,0.618-1.279,0.761c-0.47,0.142-0.959,0.142-1.448,0.142H0v-1.335
		c0.366,0,0.732,0,1.033-0.078c0.3-0.079,0.534-0.235,0.725-0.466c0.191-0.231,0.339-0.536,0.418-1.088
		c0.08-0.552,0.091-1.35,0.102-2.148V10.799H0v-0.771c0.478-0.093,0.795-0.165,0.952-0.217c0.157-0.053,0.307-0.132,0.452-0.238
		c0.145-0.107,0.27-0.259,0.377-0.458C1.887,8.916,1.98,8.66,2.061,8.346c0.08-0.313,0.146-0.755,0.199-1.325
		c0.112-1.342,0.356-2.432,0.732-3.269C3.367,2.914,3.915,2.2,4.634,1.609c0.719-0.59,1.488-1.006,2.308-1.247
		C7.761,0.121,8.724,0,9.828,0c0.973,0,1.798,0.067,2.477,0.199v3.272h-1.928c-0.233-0.703-0.506-1.2-0.82-1.491
		c-0.313-0.291-0.753-0.437-1.32-0.437c-0.405,0-0.746,0.055-1.021,0.166c-0.275,0.11-0.53,0.283-0.765,0.518
		s-0.435,0.549-0.6,0.943C5.686,3.564,5.564,4.054,5.484,4.64C5.403,5.227,5.363,5.99,5.363,6.93v1.941h4.628v1.928H5.363V26.881"/>
</g>
</svg>
