<?xml version="1.0" encoding="utf-8"?>
<!-- Generator: Adobe Illustrator 19.0.0, SVG Export Plug-In . SVG Version: 6.00 Build 0)  -->
<svg version="1.1" id="XMLID_1_" xmlns="http://www.w3.org/2000/svg" xmlns:xlink="http://www.w3.org/1999/xlink" x="0px" y="0px"
	 viewBox="0 0 29.361 31.996" enable-background="new 0 0 29.361 31.996" xml:space="preserve">
<g id="img_x5F_func07">
	<path id="XMLID_59_" fill="#FFFFFF" d="M15.76,13.735c0.264-1.222,0.609-2.003,1.036-2.345c0.426-0.342,1.169-0.492,2.227-0.45
		h6.324c-1.036,1.067-2.537,3.318-4.501,6.753c-1.964,3.434-3.111,7.535-3.44,12.304h4.851c0.023-1.801,0.18-3.528,0.47-5.181
		c0.29-1.652,0.663-3.215,1.119-4.689c0.782-2.664,1.679-4.925,2.693-6.783c1.013-1.858,1.954-3.354,2.822-4.489l-0.462-0.856
		H15.038l-1.04,5.736H15.76"/>
	<path id="XMLID_58_" fill="#FFFFFF" d="M5.363,26.881c-0.009,0.55-0.019,1.101-0.069,1.62c-0.049,0.519-0.14,1.007-0.315,1.442
		c-0.175,0.435-0.436,0.816-0.792,1.15c-0.356,0.333-0.808,0.618-1.279,0.761c-0.47,0.142-0.959,0.142-1.448,0.142H0v-1.335
		c0.366,0,0.732,0,1.033-0.078c0.3-0.079,0.534-0.235,0.725-0.466c0.191-0.231,0.339-0.536,0.418-1.088
		c0.079-0.552,0.091-1.35,0.102-2.148V10.799H0v-0.771c0.478-0.093,0.795-0.165,0.952-0.217s0.307-0.132,0.452-0.238
		c0.144-0.107,0.27-0.259,0.377-0.458C1.887,8.916,1.98,8.66,2.061,8.346c0.08-0.313,0.146-0.755,0.199-1.325
		c0.112-1.342,0.356-2.432,0.732-3.269C3.367,2.914,3.915,2.2,4.634,1.609c0.719-0.59,1.488-1.006,2.308-1.247
		C7.761,0.121,8.723,0,9.828,0c0.972,0,1.798,0.067,2.477,0.199v3.272h-1.928c-0.233-0.703-0.507-1.2-0.82-1.491
		c-0.313-0.291-0.753-0.437-1.32-0.437c-0.405,0-0.746,0.055-1.021,0.166c-0.275,0.11-0.53,0.283-0.765,0.518
		c-0.235,0.235-0.435,0.549-0.6,0.943C5.686,3.564,5.564,4.054,5.484,4.64C5.403,5.227,5.363,5.99,5.363,6.93v1.941h4.628v1.928
		H5.363V26.881"/>
</g>
</svg>
