<?xml version="1.0" encoding="utf-8"?>
<!-- Generator: Adobe Illustrator 19.0.0, SVG Export Plug-In . SVG Version: 6.00 Build 0)  -->
<svg version="1.1" id="XMLID_2_" xmlns="http://www.w3.org/2000/svg" xmlns:xlink="http://www.w3.org/1999/xlink" x="0px" y="0px"
	 viewBox="0 0 29.9973 31.996" enable-background="new 0 0 29.9973 31.996" xml:space="preserve">
<g id="img_x5F_func16">
	<path id="XMLID_95_" fill="#FFFFFF" d="M12.321,26.902c0.037,0.833-0.077,1.379-0.344,1.638c-0.266,0.259-0.911,0.376-1.934,0.351
		v1.106h7.703v-1.106c-0.949,0.025-1.552-0.092-1.809-0.351c-0.256-0.259-0.368-0.805-0.334-1.638V13.229l-0.392-0.23
		c-0.729,0.392-1.498,0.751-2.306,1.077c-0.808,0.327-1.777,0.669-2.906,1.026l0.111,1.121c0.651-0.252,1.18-0.389,1.585-0.412
		c0.241-0.003,0.407,0.118,0.497,0.363c0.09,0.246,0.133,0.635,0.129,1.169V26.902"/>
	<path id="XMLID_92_" fill="#FFFFFF" d="M26.547,24.478c-0.055,1.944-0.371,3.185-0.946,3.721c-0.575,0.537-1.079,0.772-1.511,0.705
		c-0.862-0.034-1.505-0.527-1.931-1.48c-0.425-0.952-0.637-2.159-0.636-3.62c0.013-0.852,0.258-1.597,0.733-2.233
		c0.476-0.636,1.102-0.971,1.879-1.003c0.972,0.086,1.623,0.583,1.953,1.492C26.418,22.968,26.571,23.775,26.547,24.478
		 M21.437,21.085c-0.041-1.559,0.136-3.087,0.53-4.584c0.395-1.496,1.191-2.3,2.389-2.41c0.534,0.005,0.96,0.175,1.281,0.509
		c0.32,0.334,0.587,0.802,0.799,1.404c0.193,0.507,0.41,0.889,0.652,1.145c0.243,0.257,0.594,0.385,1.054,0.386
		c0.378-0.013,0.663-0.15,0.854-0.411c0.192-0.261,0.288-0.567,0.289-0.917c-0.012-0.853-0.441-1.593-1.287-2.221
		c-0.846-0.627-2.038-0.956-3.576-0.987c-1.066,0.003-1.966,0.169-2.699,0.497c-0.733,0.328-1.342,0.797-1.828,1.405
		c-0.629,0.801-1.09,1.782-1.384,2.945c-0.295,1.163-0.44,2.43-0.437,3.801c0.018,2.914,0.56,5.038,1.625,6.374
		s2.544,1.994,4.436,1.976c2.148-0.046,3.669-0.61,4.563-1.692c0.893-1.083,1.326-2.411,1.298-3.984
		c-0.001-1.399-0.419-2.577-1.252-3.535c-0.834-0.957-2.075-1.455-3.724-1.495c-0.833,0.012-1.546,0.189-2.141,0.529
		c-0.595,0.341-1.054,0.77-1.377,1.288L21.437,21.085z"/>
	<path id="XMLID_91_" fill="#FFFFFF" d="M5.363,26.881c-0.009,0.55-0.019,1.101-0.068,1.62c-0.05,0.519-0.141,1.007-0.316,1.442
		c-0.175,0.435-0.436,0.816-0.792,1.15c-0.356,0.333-0.808,0.618-1.279,0.761c-0.47,0.142-0.959,0.142-1.448,0.142H0v-1.335
		c0.366,0,0.732,0,1.033-0.078c0.3-0.079,0.534-0.235,0.725-0.466c0.191-0.231,0.339-0.536,0.418-1.088
		c0.08-0.552,0.091-1.35,0.102-2.148V10.799H0v-0.771c0.478-0.093,0.795-0.165,0.952-0.217c0.157-0.053,0.307-0.132,0.452-0.238
		c0.145-0.107,0.27-0.259,0.377-0.458C1.887,8.916,1.98,8.66,2.061,8.346c0.08-0.313,0.146-0.755,0.199-1.325
		c0.112-1.342,0.356-2.432,0.732-3.269C3.367,2.914,3.915,2.2,4.634,1.609c0.719-0.59,1.488-1.006,2.308-1.247
		C7.761,0.121,8.724,0,9.828,0c0.973,0,1.798,0.067,2.477,0.199v3.272h-1.928c-0.233-0.703-0.507-1.2-0.82-1.491
		c-0.313-0.291-0.753-0.437-1.32-0.437c-0.405,0-0.746,0.055-1.021,0.166c-0.275,0.11-0.53,0.283-0.765,0.518
		s-0.435,0.549-0.6,0.943C5.686,3.564,5.564,4.054,5.484,4.64C5.403,5.227,5.363,5.99,5.363,6.93v1.941h4.628v1.928H5.363V26.881"/>
</g>
</svg>
