<?xml version="1.0" encoding="utf-8"?>
<!-- Generator: Adobe Illustrator 19.0.0, SVG Export Plug-In . SVG Version: 6.00 Build 0)  -->
<svg version="1.1" id="XMLID_2_" xmlns="http://www.w3.org/2000/svg" xmlns:xlink="http://www.w3.org/1999/xlink" x="0px" y="0px"
	 viewBox="0 0 19 19" enable-background="new 0 0 19 19" xml:space="preserve">
<path id="img_x5F_gear" fill="#BCBEC0" d="M17.9375,8h-1.6027c-0.1793-0.8205-0.5039-1.5852-0.9432-2.2703l1.1353-1.1353
	c0.415-0.4149,0.415-1.0876,0-1.5026l-0.6187-0.6188c-0.4149-0.4149-1.0876-0.4149-1.5026,0l-1.1353,1.1353
	C12.5853,3.1689,11.8205,2.8444,11,2.6652V1.0625C11,0.4757,10.5243,0,9.9375,0h-0.875C8.4757,0,8,0.4757,8,1.0625v1.6027
	C7.1795,2.8444,6.4147,3.1689,5.7297,3.6083L4.5944,2.4731c-0.4149-0.4149-1.0876-0.4149-1.5026,0L2.4731,3.0919
	c-0.415,0.4149-0.415,1.0876,0,1.5026l1.1353,1.1353C3.1691,6.4148,2.8445,7.1795,2.6652,8H1.0625C0.4757,8,0,8.4757,0,9.0625v0.875
	C0,10.5243,0.4757,11,1.0625,11h1.6027c0.1793,0.8205,0.5038,1.5853,0.9432,2.2703l-1.1352,1.1352
	c-0.415,0.415-0.415,1.0877,0,1.5026l0.6187,0.6187c0.4149,0.4149,1.0876,0.4149,1.5026,0l1.1353-1.1353
	C6.4148,15.8309,7.1795,16.1555,8,16.3348v1.6027C8,18.5243,8.4757,19,9.0625,19h0.875C10.5243,19,11,18.5243,11,17.9375v-1.6027
	c0.8205-0.1793,1.5852-0.5039,2.2703-0.9432l1.1353,1.1353c0.4149,0.4149,1.0876,0.4149,1.5026,0l0.6187-0.6187
	c0.415-0.4149,0.415-1.0876,0-1.5026l-1.1352-1.1352c0.4393-0.6851,0.7639-1.4498,0.9432-2.2703h1.6027
	C18.5243,11,19,10.5243,19,9.9375v-0.875C19,8.4757,18.5243,8,17.9375,8z M9.5,13.5c-2.2092,0-4-1.7909-4-4c0-2.2092,1.7908-4,4-4
	s4,1.7908,4,4C13.5,11.7091,11.7092,13.5,9.5,13.5z"/>
</svg>
