<?xml version="1.0" encoding="utf-8"?>
<!-- Generator: Adobe Illustrator 19.0.0, SVG Export Plug-In . SVG Version: 6.00 Build 0)  -->
<svg version="1.1" id="XMLID_1_" xmlns="http://www.w3.org/2000/svg" xmlns:xlink="http://www.w3.org/1999/xlink" x="0px" y="0px"
	 viewBox="0 0 31.9128 24.0609" enable-background="new 0 0 31.9128 24.0609" xml:space="preserve">
<g id="img_x5F_headlight">
	<path id="XMLID_41_" fill="#FFFFFF" d="M14.572,23.1085c0.955,1.008,2.484,1.008,4.15,0.913c1.667-0.094,3.471-0.283,5.373-1.089
		c1.902-0.806,3.901-2.228,5.235-3.745c1.333-1.517,1.999-3.129,2.333-4.74c0.333-1.612,0.333-3.223,0-4.835
		c-0.334-1.611-1-3.223-2.333-4.738c-1.334-1.515-3.333-2.934-5.233-3.739c-1.901-0.806-3.701-0.999-5.368-1.095
		c-1.666-0.097-3.199-0.097-4.139,0.91c-0.941,1.008-1.291,3.022-1.544,5.037c-0.253,2.014-0.409,4.028-0.425,6.042
		c-0.015,2.015,0.11,4.029,0.363,6.044C13.236,20.0875,13.617,22.1015,14.572,23.1085"/>
	<polyline id="XMLID_40_" fill="#FFFFFF" points="0,1.0095 0,3.0095 11.263,3.0095 11.923,1.0095 0,1.0095 	"/>
	<polyline id="XMLID_39_" fill="#FFFFFF" points="0,11.0325 0,13.0325 10.363,13.0325 10.348,11.0325 0,11.0325 	"/>
	<polyline id="XMLID_38_" fill="#FFFFFF" points="0,18.0325 0,16.0325 10.513,16.0325 10.695,18.0325 0,18.0325 	"/>
	<polyline id="XMLID_37_" fill="#FFFFFF" points="0,23.0345 0,21.0345 11.263,21.0345 11.923,23.0345 0,23.0345 	"/>
	<polyline id="XMLID_36_" fill="#FFFFFF" points="0,6.0335 0,8.0335 10.513,8.0335 10.695,6.0335 0,6.0335 	"/>
</g>
</svg>
