<?xml version="1.0" encoding="utf-8"?>
<!-- Generator: Adobe Illustrator 19.0.0, SVG Export Plug-In . SVG Version: 6.00 Build 0)  -->
<svg version="1.1" id="XMLID_2_" xmlns="http://www.w3.org/2000/svg" xmlns:xlink="http://www.w3.org/1999/xlink" x="0px" y="0px"
	 viewBox="0 0 32.0402 29.8937" enable-background="new 0 0 32.0402 29.8937" xml:space="preserve">
<g id="hook">
	<polyline id="XMLID_155_" fill="#FFFFFF" points="2.667,1.1347 0,1.1347 0,15.7006 2.667,15.7006 2.667,1.1347 	"/>
	<path id="XMLID_148_" fill="#FFFFFF" d="M10.262,26.6087c0-0.778,0.621-1.408,1.386-1.408c0.766,0,1.387,0.63,1.387,1.408
		c0,0.777-0.621,1.408-1.387,1.408C10.883,28.0167,10.262,27.3857,10.262,26.6087 M10.02,4.1527c0.011-0.161-0.109-0.267-0.23-0.372
		l-6.282,0.003l0.007,9.332l6.335-0.003v10.282H9.774c-0.87,0-1.575,0.716-1.575,1.6v3.299c0,0.884,0.705,1.6,1.575,1.6h3.741
		c0.87,0,1.575-0.716,1.575-1.6v-3.299c0-0.884-0.705-1.6-1.575-1.6h-0.113v-10.282h4.844c0.634,0.433,1.269,0.866,1.963,1.266
		c0.695,0.4,1.45,0.767,2.308,0.973c0.859,0.205,1.822,0.249,2.724,0.183c0.903-0.067,1.745-0.245,2.472-0.595
		c0.728-0.349,1.34-0.872,1.898-1.405c0.558-0.533,1.061-1.078,1.45-1.716c0.388-0.639,0.661-1.372,0.82-2.2
		c0.159-0.828,0.202-1.75,0.115-2.655c-0.088-0.906-0.306-1.794-0.651-2.544s-0.815-1.361-1.307-1.945
		c-0.492-0.583-1.007-1.138-1.482-1.544c-0.476-0.405-0.914-0.661-1.269-0.744c-0.356-0.083-0.629,0.005-0.859,0.189
		c-0.23,0.183-0.416,0.461-0.481,0.811c-0.066,0.35-0.011,0.772,0.142,1.266c0.153,0.495,0.405,1.061,0.618,1.517l0.552,1.166
		c0.164,0.367,0.318,0.756,0.383,1.167c0.066,0.411,0.044,0.844-0.093,1.288c-0.136,0.445-0.388,0.9-0.76,1.184
		c-0.372,0.283-0.864,0.394-1.438,0.361c-0.575-0.034-1.231-0.211-1.734-0.517c-0.503-0.305-0.853-0.739-1.132-1.244
		c-0.279-0.506-0.487-1.083-0.591-1.756c-0.104-0.672-0.104-1.438-0.077-2.188l0.121-2.055c0.038-0.573,0.06-0.984,0.022-1.195
		c-0.039-0.211-0.137-0.222-0.29-0.111l-0.613,0.645l-0.897,1.066c-0.35,0.4-0.755,0.833-1.192,1.178
		c-0.438,0.344-0.528,0.468-1.066,0.663c-0.505,0.147-1.01,0.131-1.547,0.144l-1.769-0.006l-0.85,0.065
		c-0.183,0.034-0.325,0.078-0.336,0.225c-0.011,0.147,0.11,0.397,0.244,0.758l0.382,1.242c0.102,0.408,0.156,0.753,0.102,1.103
		c-0.055,0.35-0.219,0.705-0.482,1.005l-0.244,0.238v-1.721c0-0.884-0.705-1.6-1.575-1.6h-0.401c-0.87,0-1.576,0.716-1.576,1.6
		v1.775l-0.175-0.12c-0.35-0.272-0.568-0.661-0.634-1.066c-0.066-0.406,0.022-0.828,0.161-1.25c0.14-0.422,0.331-0.844,0.498-1.164
		C9.867,4.5307,10.009,4.3136,10.02,4.1527z"/>
</g>
</svg>
