<?xml version="1.0" encoding="utf-8"?>
<!-- Generator: Adobe Illustrator 19.0.0, SVG Export Plug-In . SVG Version: 6.00 Build 0)  -->
<svg version="1.1" id="XMLID_2_" xmlns="http://www.w3.org/2000/svg" xmlns:xlink="http://www.w3.org/1999/xlink" x="0px" y="0px"
	 viewBox="0 0 32.001 20.5574" enable-background="new 0 0 32.001 20.5574" xml:space="preserve">
<path id="img_x5F_horn" fill="#FFFFFF" d="M11.135,16.5985c0.466,0.306,1.132,0.653,1.889,0.896
	c0.757,0.243,1.604,0.382,2.486,0.444c0.882,0.063,1.798,0.049,2.638-0.014c0.841-0.062,1.604-0.173,2.368-0.382
	c0.764-0.208,1.528-0.513,2.083-0.84c0.556-0.326,0.903-0.673,1.111-1.013c0.209-0.341,0.278-0.674,0.229-0.986
	c-0.048-0.313-0.215-0.605-0.569-0.91c-0.354-0.306-0.896-0.625-1.535-0.889c-0.638-0.264-1.374-0.472-2.208-0.611
	c-0.833-0.139-1.763-0.208-2.645-0.222c-0.882-0.014-1.715,0.028-2.479,0.139s-1.458,0.291-2.069,0.534
	c-0.611,0.243-1.139,0.549-1.535,0.868c-0.395,0.32-0.659,0.653-0.763,1.014c-0.105,0.361-0.049,0.75,0.111,1.076
	C10.406,16.0295,10.67,16.2935,11.135,16.5985 M0,0.9755l0.036-0.286c0.03-0.099,0.087-0.203,0.201-0.313
	c0.115-0.109,0.287-0.224,0.447-0.289c0.161-0.065,0.31-0.081,0.479-0.086c0.168-0.005,0.355,0,0.512,0.052
	c0.156,0.052,0.281,0.151,0.518,0.451l1.073,1.388c0.487,0.588,1.112,1.265,1.76,1.869c0.648,0.604,1.32,1.135,2.054,1.62
	c0.735,0.484,1.531,0.922,2.294,1.265c0.763,0.344,1.492,0.594,2.253,0.792c0.76,0.198,1.552,0.344,2.275,0.432
	c0.724,0.089,1.38,0.12,3.49,0.134l7.478,0.014l2.078-0.005l0.963-0.148c0.359-0.083,0.693-0.203,0.969-0.339
	c0.276-0.135,0.494-0.286,0.661-0.453l0.414-0.523c0.133-0.175,0.284-0.341,0.458-0.435c0.175-0.094,0.373-0.115,0.558-0.109
	l0.492,0.093l0.315,0.214l0.178,0.208c0.034,0.073,0.041,0.157,0.045,1.284l-0.01,4.442c-0.013,1.143-0.039,1.258-0.125,1.375
	c-0.086,0.117-0.232,0.237-0.419,0.312c-0.187,0.076-0.417,0.107-0.641,0.071c-0.223-0.037-0.442-0.141-0.661-0.245
	c-0.137-0.214-0.274-0.427-0.477-0.633c-0.203-0.205-0.472-0.403-0.762-0.552c-0.29-0.148-0.6-0.247-0.861-0.332
	c-0.261-0.085-0.474-0.157-0.807-0.192l-1.061-0.036c-0.273,0-0.366,0-0.422,0.075c-0.057,0.075-0.078,0.224-0.032,0.382
	c0.047,0.158,0.16,0.325,0.276,0.512c0.115,0.187,0.232,0.396,0.33,0.664l0.254,0.924c-0.038,0.481-0.076,0.962-0.174,1.392
	c-0.098,0.429-0.255,0.808-0.446,1.141s-0.416,0.621-0.66,0.871c-0.244,0.25-0.508,0.462-0.815,0.674
	c-0.307,0.212-0.658,0.424-1.149,0.651c-0.492,0.227-1.124,0.47-1.766,0.672c-0.642,0.201-1.295,0.361-2.125,0.458
	c-0.829,0.097-1.836,0.132-2.774,0.125c-0.938-0.007-1.807-0.056-2.723-0.226c-0.917-0.17-1.881-0.461-2.703-0.812
	c-0.823-0.351-1.503-0.76-2.021-1.16c-0.518-0.399-0.873-0.788-1.137-1.218c-0.264-0.431-0.436-0.903-0.554-1.299
	c-0.117-0.395-0.18-0.715-0.27-0.892c-0.09-0.177-0.208-0.212-0.368-0.156c-0.16,0.055-0.361,0.201-0.746,0.517l-1.462,1.281
	c-0.507,0.479-0.951,0.951-1.389,1.462l-1.13,1.392c-0.261,0.333-0.35,0.451-0.502,0.51c-0.152,0.059-0.368,0.059-0.59-0.01
	c-0.222-0.07-0.451-0.208-0.632-0.365c-0.181-0.156-0.314-0.329-0.381-0.506C0,18.8965,0,18.7165,0,15.6995V0.9755z"/>
</svg>
