<?xml version="1.0" encoding="utf-8"?>
<!-- Generator: Adobe Illustrator 19.0.0, SVG Export Plug-In . SVG Version: 6.00 Build 0)  -->
<svg version="1.1" id="XMLID_1_" xmlns="http://www.w3.org/2000/svg" xmlns:xlink="http://www.w3.org/1999/xlink" x="0px" y="0px"
	 viewBox="0 0 19 14" enable-background="new 0 0 19 14" xml:space="preserve">
<g id="img_x5F_menu">
	<path id="XMLID_3_" fill="#BCBEC0" d="M0.9203,0h17.1594C18.588,0,19,0.2891,19,0.6458v0.7083C19,1.7109,18.588,2,18.0797,2H0.9203
		C0.412,2,0,1.7109,0,1.3542V0.6458C0,0.2891,0.412,0,0.9203,0z"/>
	<path id="XMLID_7_" fill="#BCBEC0" d="M0.9203,6h17.1594C18.588,6,19,6.2891,19,6.6458v0.7083C19,7.7109,18.588,8,18.0797,8H0.9203
		C0.412,8,0,7.7109,0,7.3542V6.6458C0,6.2891,0.412,6,0.9203,6z"/>
	<path id="XMLID_8_" fill="#BCBEC0" d="M0.9203,12h17.1594C18.588,12,19,12.2891,19,12.6458v0.7083C19,13.7109,18.588,14,18.0797,14
		H0.9203C0.412,14,0,13.7109,0,13.3542v-0.7083C0,12.2891,0.412,12,0.9203,12z"/>
</g>
</svg>
