<?xml version="1.0" encoding="utf-8"?>
<!-- Generator: Adobe Illustrator 19.0.0, SVG Export Plug-In . SVG Version: 6.00 Build 0)  -->
<svg version="1.1" id="XMLID_3_" xmlns="http://www.w3.org/2000/svg" xmlns:xlink="http://www.w3.org/1999/xlink" x="0px" y="0px"
	 viewBox="0 0 25 25" enable-background="new 0 0 25 25" xml:space="preserve">
<g id="img_x5F_stop">
	<polygon id="XMLID_1_" fill="#ED1C24" points="0,7.5 7.5,0 17.5,0 25,7.5 25,17.5 17.5,25 7.5,25 0,17.5 	"/>
	<path id="XMLID_4_" fill="#FFFFFF" d="M10.5552,20.8696c0-1.0075,0.8335-1.7485,1.9448-1.7485c1.1807,0,1.9448,0.8,1.9448,1.7485
		c0,0.9485-0.7642,1.6304-1.9448,1.6304C11.4927,22.5,10.5552,21.8775,10.5552,20.8696z M14.2017,3.7967
		c0,0.4449-0.0693,1.0674-0.2432,2.6384l-1.0073,9.5735c-0.208,0.178-0.729,0.178-0.9028,0L11.041,6.4351
		c-0.1733-1.571-0.2427-2.1935-0.2427-2.6384c0-0.741,0.5903-0.8595,1.7017-0.8595S14.2017,3.0557,14.2017,3.7967z"/>
</g>
</svg>
