<?xml version="1.0" standalone="no"?>
<!DOCTYPE svg PUBLIC "-//W3C//DTD SVG 20010904//EN"
 "http://www.w3.org/TR/2001/REC-SVG-20010904/DTD/svg10.dtd">
<svg version="1.0" xmlns="http://www.w3.org/2000/svg"
 width="385.000000pt" height="385.000000pt" viewBox="0 0 385.000000 385.000000"
 preserveAspectRatio="xMidYMid meet">
<metadata>
Created by potrace 1.11, written by Peter Selinger 2001-2013
</metadata>
<g transform="translate(0.000000,385.000000) scale(0.100000,-0.100000)"
fill="#000000" stroke="none">
<path d="M1788 3845 c-2 -1 -32 -5 -68 -9 -330 -31 -674 -166 -945 -371 -260
-196 -486 -479 -605 -756 -17 -41 -35 -83 -40 -94 -23 -53 -68 -206 -85 -290
-43 -211 -52 -509 -20 -690 27 -154 65 -301 99 -380 7 -16 19 -46 26 -65 24
-62 125 -254 170 -321 112 -167 285 -353 425 -460 224 -170 447 -279 705 -344
52 -13 111 -27 130 -30 19 -3 42 -8 50 -10 67 -17 357 -26 480 -13 744 75
1359 552 1623 1258 75 199 109 396 111 635 0 94 -2 195 -6 225 -5 30 -11 78
-14 105 -19 153 -104 408 -190 573 -295 564 -840 945 -1469 1027 -51 7 -371
15 -377 10z m362 -240 c720 -109 1288 -636 1430 -1327 29 -145 31 -164 35
-313 10 -482 -168 -916 -512 -1253 -452 -441 -1113 -590 -1719 -387 -473 158
-864 534 -1038 997 -34 92 -79 256 -90 333 -3 22 -9 58 -12 80 -4 22 -7 96 -8
164 -11 743 460 1404 1166 1635 57 19 117 36 133 39 17 3 55 10 85 17 30 6 84
13 120 16 36 4 66 8 68 9 6 6 296 -3 342 -10z"/>
<path d="M1828 3385 c-2 -1 -34 -5 -73 -9 -78 -7 -167 -26 -270 -58 -372 -112
-710 -408 -879 -768 -226 -484 -177 -1039 131 -1474 76 -106 236 -265 348
-345 116 -82 346 -192 432 -207 6 -1 27 -7 45 -13 114 -36 347 -55 489 -40
135 15 163 20 254 44 507 137 906 540 1035 1046 42 164 56 370 37 534 -49 411
-267 780 -603 1021 -187 133 -402 219 -649 259 -41 7 -291 15 -297 10z m8
-209 c18 -14 19 -28 19 -228 -1 -255 -10 -430 -24 -457 -18 -32 -48 -14 -76
44 -14 30 -25 57 -25 61 0 28 -61 125 -108 172 -56 55 -85 73 -203 125 -100
44 -117 137 -34 184 50 28 199 84 242 90 18 2 45 8 60 13 46 14 127 11 149 -4z
m464 -33 c47 -13 126 -44 176 -68 74 -36 94 -50 102 -74 8 -21 7 -36 -4 -55
-17 -33 -219 -294 -308 -398 -87 -102 -105 -113 -151 -98 -46 15 -62 41 -70
115 -7 67 -7 281 0 365 22 264 36 276 255 213z m543 -355 c34 -18 73 -65 148
-178 99 -149 112 -211 52 -239 -62 -29 -310 -112 -401 -135 -178 -44 -229 -41
-252 15 -27 64 0 114 172 321 186 224 219 249 281 216z m-1436 -217 c84 -61
95 -176 25 -250 -61 -64 -140 -73 -215 -25 -65 42 -92 128 -63 197 30 70 82
106 157 106 47 1 63 -4 96 -28z m-495 -421 c112 -114 186 -153 333 -174 114
-16 115 -17 122 -44 11 -46 -14 -73 -101 -104 -73 -27 -299 -89 -371 -103
-175 -34 -189 -32 -212 23 -20 47 -22 248 -4 345 19 95 67 150 128 143 13 -1
58 -38 105 -86z m1114 -18 c53 -27 109 -92 121 -140 32 -123 -31 -243 -148
-282 -211 -72 -390 176 -255 352 69 91 185 120 282 70z m937 -109 c-49 -60
-93 -115 -100 -123 -100 -124 -128 -155 -142 -152 -38 7 -139 48 -174 70 -20
14 -40 36 -43 49 -8 32 2 93 18 110 27 26 428 150 496 152 l32 1 -87 -107z
m-1479 -378 c13 -9 29 -29 36 -45 16 -40 -2 -75 -97 -180 -41 -47 -129 -148
-193 -226 -65 -78 -126 -143 -137 -146 -43 -11 -99 37 -183 159 -98 141 -124
223 -84 263 35 35 511 189 587 190 27 0 58 -7 71 -15z m704 -229 c14 -8 56
-86 88 -162 l21 -51 -64 -79 c-35 -43 -72 -88 -81 -99 -9 -11 -35 -42 -57 -70
-22 -27 -50 -60 -61 -73 l-21 -24 -3 89 c-2 48 -4 158 -4 244 0 173 7 199 64
223 31 12 99 14 118 2z m-410 -29 c8 -6 19 -23 24 -37 16 -37 10 -432 -7 -521
-7 -37 -36 -78 -70 -99 -48 -30 -131 -23 -240 20 -122 48 -183 91 -205 145
-10 27 -5 36 134 220 204 270 238 301 311 290 21 -3 45 -11 53 -18z"/>
</g>
</svg>
